<?xml version="1.0" encoding="UTF-8"?>
<svg width="42" height="42" fill="none" version="1.1" viewBox="0 0 42 42" xmlns="http://www.w3.org/2000/svg" xmlns:cc="http://creativecommons.org/ns#" xmlns:dc="http://purl.org/dc/elements/1.1/" xmlns:rdf="http://www.w3.org/1999/02/22-rdf-syntax-ns#">
 <metadata>
  <rdf:RDF>
   <cc:Work rdf:about="">
    <dc:format>image/svg+xml</dc:format>
    <dc:type rdf:resource="http://purl.org/dc/dcmitype/StillImage"/>
    <dc:title/>
   </cc:Work>
  </rdf:RDF>
 </metadata>
 <mask id="mask0" x="4" y="4" width="42" height="42" mask-type="alpha" maskUnits="userSpaceOnUse">
  <path d="m25 46c11.598 0 21-9.402 21-21s-9.402-21-21-21-21 9.402-21 21 9.402 21 21 21z" fill="#fff"/>
 </mask>
 <g transform="translate(-4,-4)" mask="url(#mask0)">
  <circle cx="25" cy="25" r="21" fill="#d8d8d8"/>
 </g>
 <path d="m28.707 26.293c0.268 0.268 0.361 0.664 0.241 1.023l-1 3c-0.136 0.409-0.518 0.684-0.948 0.684h-12c-0.431 0-0.813-0.275-0.949-0.684l-1-3c-0.12-0.359-0.026-0.755 0.242-1.023 0.134-0.135 3.342-3.293 7.707-3.293 4.364 0 7.572 3.158 7.707 3.293zm-2.428 2.707 0.562-1.687c-0.92-0.752-3.155-2.313-5.841-2.313-2.703 0-4.927 1.558-5.843 2.31l0.563 1.69zm-5.2793-16c-1.654 0-3 1.346-3 3s1.346 3 3 3 3-1.346 3-3-1.346-3-3-3zm0 8c-2.757 0-5-2.243-5-5s2.243-5 5-5 5 2.243 5 5-2.243 5-5 5z" clip-rule="evenodd" fill="#1a1a1a" fill-rule="evenodd"/>
</svg>
