<svg width="43" height="53" viewBox="0 0 43 53" fill="none" xmlns="http://www.w3.org/2000/svg">
<path d="M33.035 38.314C31.156 38.314 29.9216 37.2394 29.9216 35.6276C29.9216 34.2843 30.8346 33.2097 31.9083 33.2097C32.3374 33.2097 32.7136 33.3705 32.7136 33.8C32.7136 34.0687 32.6059 34.2843 32.8743 34.2843C33.035 34.2843 33.1974 34.1235 33.1974 33.6922C33.1974 33.162 32.7136 32.7254 32.016 32.7254H31.8536C31.9263 32.5745 31.9632 32.4087 31.9613 32.2412C31.9637 32.1418 31.946 32.0431 31.9091 31.9509C31.8722 31.8586 31.817 31.7749 31.7469 31.7046C31.6767 31.6344 31.593 31.5791 31.5008 31.5422C31.4087 31.5054 31.31 31.4876 31.2108 31.49C30.8346 31.49 30.4585 31.7056 30.4585 31.9743C30.4555 31.996 30.4576 32.0182 30.4647 32.0389C30.4717 32.0597 30.4835 32.0786 30.4991 32.094C30.5147 32.1094 30.5337 32.121 30.5545 32.1279C30.5754 32.1347 30.5975 32.1366 30.6192 32.1333C30.7799 32.1333 30.8346 31.9743 31.1031 31.9743C31.1536 31.9683 31.2049 31.9739 31.2531 31.9906C31.3012 32.0074 31.3449 32.0348 31.3809 32.0708C31.417 32.1069 31.4444 32.1507 31.4611 32.1988C31.4778 32.247 31.4834 32.2983 31.4774 32.349C31.4774 32.7254 31.156 32.8792 30.8876 33.0471C30.4394 33.3104 30.0691 33.688 29.8144 34.1413C29.5597 34.5946 29.4297 35.1075 29.4378 35.6276C29.4378 37.1316 30.2978 38.102 31.5322 38.5279L30.7269 39.7651C29.6532 39.7651 29.1146 40.5728 28.1486 42.2908C28.1042 42.0704 27.9823 41.8733 27.805 41.7352C27.6278 41.5971 27.407 41.527 27.1827 41.5378C26.5911 41.5378 26.215 41.9673 26.215 42.5594C26.2085 42.6233 26.2275 42.6872 26.2679 42.7372C26.3082 42.7871 26.3666 42.8192 26.4304 42.8263C26.4661 42.8286 26.5019 42.8233 26.5354 42.8107C26.5689 42.7982 26.5993 42.7786 26.6247 42.7534C26.6501 42.7281 26.6698 42.6978 26.6826 42.6644C26.6954 42.6309 26.7009 42.5951 26.6988 42.5594C26.6938 42.4923 26.7025 42.4249 26.7244 42.3614C26.7463 42.2978 26.781 42.2393 26.8263 42.1897C26.8716 42.14 26.9266 42.1002 26.9879 42.0726C27.0492 42.045 27.1155 42.0302 27.1827 42.0292C27.5588 42.0292 27.7125 42.2978 27.7125 42.6195C27.724 42.9869 27.61 43.3473 27.3893 43.6411C26.2626 45.4668 24.7051 46.3806 23.363 46.3806C22.1798 46.3806 21.4823 45.6825 21.4823 44.9843C21.4823 44.3392 21.8584 43.8019 22.503 43.8019C22.9321 43.8019 23.2005 44.0706 23.2005 44.4453C23.2005 44.7687 22.9321 44.7687 22.9321 44.9295C22.9321 45.0373 23.0398 45.0904 23.1475 45.0904C23.4707 45.0904 23.6773 44.7157 23.6773 44.3392C23.6773 43.7471 23.1934 43.3176 22.4959 43.3176C22.2131 43.3164 21.936 43.397 21.6979 43.5497C21.4598 43.7024 21.2709 43.9207 21.1538 44.1784C21.0364 43.921 20.8473 43.7029 20.6093 43.5503C20.3713 43.3976 20.0944 43.3169 19.8117 43.3176C19.1053 43.3176 18.6285 43.7471 18.6285 44.3392C18.6285 44.7157 18.844 45.0904 19.1583 45.0904C19.2642 45.0904 19.372 45.0373 19.372 44.9295C19.372 44.7687 19.1035 44.7687 19.1035 44.4453C19.1035 44.0706 19.372 43.8019 19.8099 43.8019C20.4527 43.8019 20.8289 44.3321 20.8289 44.9843C20.8289 45.6825 20.1313 46.3806 18.9499 46.3806C17.6078 46.3806 16.0503 45.4668 14.9218 43.6411C14.7061 43.3423 14.5984 42.9789 14.6163 42.6107C14.6163 42.289 14.777 42.0203 15.1461 42.0203C15.2132 42.0216 15.2794 42.0365 15.3405 42.0642C15.4017 42.0919 15.4566 42.1318 15.5019 42.1814C15.5471 42.231 15.5818 42.2893 15.6039 42.3528C15.6259 42.4163 15.6348 42.4836 15.63 42.5506C15.6276 42.5862 15.6329 42.622 15.6455 42.6554C15.6581 42.6888 15.6776 42.7192 15.7029 42.7445C15.7281 42.7697 15.7585 42.7893 15.7919 42.8019C15.8253 42.8145 15.861 42.8198 15.8966 42.8174C15.9604 42.8103 16.0188 42.7783 16.0592 42.7283C16.0995 42.6784 16.1185 42.6145 16.1121 42.5506C16.1121 41.9585 15.7359 41.529 15.1461 41.529C14.9215 41.5181 14.7005 41.5881 14.523 41.7262C14.3455 41.8643 14.2232 42.0614 14.1784 42.2819C13.2195 40.571 12.6826 39.7651 11.6142 39.7651L10.809 38.5279C12.0451 38.0984 12.9034 37.1316 12.9034 35.6276C12.9118 35.1074 12.782 34.5944 12.5272 34.141C12.2725 33.6876 11.9019 33.3101 11.4535 33.0471C11.1851 32.8863 10.8637 32.7254 10.8637 32.349C10.8577 32.2982 10.8633 32.2467 10.8801 32.1983C10.8969 32.15 10.9245 32.1062 10.9607 32.0701C10.997 32.034 11.0409 32.0066 11.0893 31.99C11.1376 31.9734 11.1891 31.968 11.2399 31.9743C11.5083 31.9743 11.5613 32.1333 11.722 32.1333C11.7437 32.1365 11.7659 32.1346 11.7868 32.1278C11.8077 32.1209 11.8268 32.1094 11.8425 32.094C11.8582 32.0786 11.8701 32.0598 11.8774 32.039C11.8847 32.0183 11.8871 31.9961 11.8844 31.9743C11.8844 31.7056 11.5083 31.49 11.1321 31.49C11.0328 31.4873 10.9339 31.5049 10.8415 31.5417C10.7492 31.5785 10.6653 31.6337 10.5949 31.704C10.5245 31.7742 10.4692 31.8581 10.4322 31.9504C10.3952 32.0428 10.3774 32.1417 10.3798 32.2412C10.378 32.4087 10.4148 32.5745 10.4876 32.7254H10.3269C9.6205 32.7254 9.14546 33.1549 9.14546 33.6922C9.14546 34.1235 9.30616 34.2843 9.46686 34.2843C9.73528 34.2843 9.62756 34.0687 9.62756 33.8C9.62756 33.3705 10.0037 33.2097 10.4346 33.2097C11.5083 33.2097 12.4213 34.2843 12.4213 35.6276C12.4213 37.2394 11.1851 38.314 9.30616 38.314C7.10404 38.314 5.43877 36.7021 5.43877 34.4451C5.43877 32.2412 6.7279 30.7335 8.17773 29.3956L9.41388 28.2132C10.9714 26.7621 11.6142 25.258 11.6142 23.3793C11.6142 21.3361 10.3781 19.0791 7.80335 17.9515C8.33313 17.7907 8.6616 17.2445 8.6616 16.6082C8.6616 16.1788 8.5009 15.9119 8.5009 15.5884C8.5009 14.9433 8.87704 14.5669 9.41388 14.5669C9.62033 14.5602 9.82101 14.6357 9.97195 14.7768C10.1229 14.9179 10.2118 15.1132 10.2192 15.3198C10.2229 15.3986 10.2102 15.4772 10.1818 15.5508C10.1534 15.6243 10.11 15.6911 10.0543 15.7469C9.99858 15.8026 9.93184 15.8461 9.85835 15.8745C9.78487 15.9029 9.70625 15.9157 9.62756 15.9119C9.46686 15.9119 9.35914 15.9119 9.35914 16.0727C9.35914 16.2336 9.52161 16.2866 9.73528 16.2866C9.96706 16.2943 10.1936 16.2164 10.3717 16.0678C10.5498 15.9192 10.6671 15.7102 10.7012 15.4806C10.8161 15.5479 10.9461 15.585 11.0792 15.5884C11.1646 15.5917 11.2498 15.5772 11.3293 15.5459C11.4089 15.5146 11.4812 15.4672 11.5415 15.4066C11.6019 15.346 11.6491 15.2736 11.6801 15.1938C11.7112 15.1141 11.7254 15.0288 11.722 14.9433C11.722 14.8355 11.669 14.6747 11.5083 14.6747C11.4006 14.6747 11.3476 14.7825 11.3476 14.8885C11.3499 14.9245 11.3445 14.9605 11.3319 14.9943C11.3192 15.028 11.2996 15.0587 11.2742 15.0842C11.2488 15.1098 11.2183 15.1297 11.1847 15.1426C11.1511 15.1554 11.1151 15.161 11.0792 15.159C10.9712 15.1484 10.8685 15.1074 10.7828 15.0408C10.6972 14.9742 10.6322 14.8846 10.5953 14.7825C10.4773 14.5715 10.3062 14.3952 10.0989 14.2712C9.89157 14.1471 9.65538 14.0797 9.41388 14.0755C9.09154 14.0703 8.77813 14.1816 8.53124 14.3891C8.28436 14.5966 8.12058 14.8862 8.07001 15.2049C7.70169 14.8307 7.28613 14.5063 6.83386 14.2399C7.26298 13.9695 7.63912 13.7556 8.07001 13.4322C8.7493 12.9191 9.37897 12.3433 9.95073 11.7125L12.9034 8.48868C15.4816 5.64135 17.1416 4.94322 18.7574 4.94322C20.1543 4.94322 20.8518 5.64135 20.8518 6.4473C20.8518 7.03939 20.5993 7.47771 20.1967 7.69334C19.9518 7.4385 19.7878 7.11689 19.7252 6.76897C19.6704 6.50209 19.6174 6.50209 19.5627 6.50209C19.455 6.50209 19.455 6.60814 19.455 6.71595C19.4446 7.1087 19.5449 7.49645 19.7446 7.83473C19.6863 7.83473 19.6263 7.84534 19.568 7.84534C19.0382 7.84534 18.7097 7.57492 18.7097 7.25325C18.7073 7.20361 18.7157 7.15403 18.7343 7.10795C18.7529 7.06186 18.7813 7.02038 18.8175 6.98637C18.9234 6.87855 18.8704 6.82376 18.8175 6.82376C18.602 6.82376 18.3866 7.09241 18.3866 7.41409C18.3866 7.79055 18.7097 8.32785 19.6227 8.32785C19.7945 8.32801 19.9654 8.30239 20.1296 8.25185C20.4335 8.47673 20.8014 8.59809 21.1794 8.59809C21.5574 8.59809 21.9253 8.47673 22.2292 8.25185C22.394 8.30252 22.5655 8.32814 22.7378 8.32785C23.6491 8.32785 23.974 7.79762 23.974 7.41409C23.974 7.09241 23.7585 6.82376 23.5449 6.82376C23.4919 6.82376 23.4371 6.87855 23.5449 6.98637C23.5802 7.02095 23.6079 7.06258 23.6261 7.10855C23.6444 7.15453 23.6528 7.20382 23.6508 7.25325C23.6508 7.57492 23.3294 7.84534 22.7926 7.84534C22.7308 7.84534 22.669 7.84534 22.616 7.83473C22.8156 7.49645 22.916 7.1087 22.9056 6.71595C22.9056 6.60814 22.9056 6.50209 22.7979 6.50209C22.7449 6.50209 22.6902 6.50209 22.6372 6.76897C22.5731 7.11639 22.4092 7.43759 22.1657 7.69334C21.763 7.47771 21.5087 7.03939 21.5087 6.4473C21.5087 5.64135 22.2063 4.94322 23.6031 4.94322C25.2137 4.94322 26.8789 5.64135 29.4572 8.48868L32.4098 11.7125C32.9689 12.3559 33.5999 12.9329 34.2906 13.4322C34.7197 13.7556 35.0958 13.9624 35.5267 14.2399C35.0742 14.506 34.6586 14.8305 34.2906 15.2049C34.24 14.8862 34.0762 14.5966 33.8293 14.3891C33.5824 14.1816 33.269 14.0703 32.9467 14.0755C32.7052 14.0797 32.469 14.1471 32.2617 14.2712C32.0544 14.3952 31.8832 14.5715 31.7653 14.7825C31.7285 14.8843 31.6638 14.9737 31.5785 15.0403C31.4932 15.1069 31.3908 15.1481 31.2832 15.159C31.2472 15.161 31.2113 15.1554 31.1776 15.1426C31.144 15.1297 31.1135 15.1098 31.0881 15.0842C31.0627 15.0587 31.0431 15.028 31.0304 14.9943C31.0178 14.9605 31.0124 14.9245 31.0148 14.8885C31.0148 14.7825 30.96 14.6747 30.8541 14.6747C30.6916 14.6747 30.6386 14.8355 30.6386 14.9433C30.6351 15.029 30.6494 15.1144 30.6806 15.1943C30.7117 15.2741 30.7591 15.3466 30.8196 15.4073C30.8802 15.4679 30.9527 15.5153 31.0324 15.5465C31.1122 15.5776 31.1976 15.5919 31.2832 15.5884C31.4156 15.5847 31.545 15.5477 31.6593 15.4806C31.6934 15.7102 31.8107 15.9192 31.9889 16.0678C32.167 16.2164 32.3935 16.2943 32.6253 16.2866C32.8407 16.2866 33.0014 16.2336 33.0014 16.0727C33.0014 15.9119 32.8937 15.9119 32.733 15.9119C32.6531 15.9216 32.5719 15.913 32.4958 15.8867C32.4197 15.8604 32.3506 15.817 32.2937 15.7599C32.2368 15.7028 32.1937 15.6335 32.1676 15.5573C32.1416 15.481 32.1332 15.3998 32.1432 15.3198C32.1506 15.1135 32.2392 14.9185 32.3898 14.7775C32.5403 14.6364 32.7405 14.5607 32.9467 14.5669C33.4853 14.5669 33.8614 14.9433 33.8614 15.5884C33.8614 15.9119 33.699 16.1788 33.699 16.6082C33.699 17.2534 34.0221 17.7907 34.559 17.9515C31.9807 19.0791 30.7463 21.3361 30.7463 23.3793C30.7463 25.258 31.3909 26.7621 32.9467 28.2132L34.1828 29.3956C35.6327 30.7388 36.9218 32.2412 36.9218 34.4451C36.9218 36.7021 35.2565 38.314 33.0544 38.314H33.035ZM21.1873 48.3053C20.8799 47.7067 20.501 47.1476 20.0589 46.6404C20.5485 46.4514 20.9505 46.0874 21.1873 45.6188C21.4237 46.0871 21.8251 46.4511 22.314 46.6404C21.8727 47.1478 21.4944 47.7069 21.1873 48.3053ZM21.7295 8.00794C21.5588 8.08487 21.3737 8.12465 21.1865 8.12465C20.9992 8.12465 20.8142 8.08487 20.6434 8.00794C20.8872 7.81968 21.0752 7.56857 21.1873 7.28153C21.2988 7.56845 21.4862 7.81957 21.7295 8.00794ZM37.7818 32.1369C37.6408 32.1296 37.5005 32.1609 37.376 32.2276C37.2515 32.2943 37.1476 32.3937 37.0754 32.5151C36.6463 31.5483 36.2172 30.6346 34.3365 28.9149C34.5803 28.9887 34.834 29.0251 35.0888 29.0227C35.6803 29.0227 36.3249 28.8601 36.6993 28.4924C36.7482 28.6673 36.8543 28.8207 37.0006 28.928C37.1469 29.0353 37.325 29.0905 37.5063 29.0845C38.0961 29.0845 38.3116 28.7081 38.3116 28.2786C38.3116 28.116 38.2568 27.9551 38.0961 27.9551C37.7747 27.9551 38.0432 28.6003 37.5063 28.6003C37.4523 28.5997 37.399 28.5877 37.35 28.5651C37.3009 28.5424 37.2572 28.5097 37.2217 28.469C37.1862 28.4282 37.1597 28.3805 37.1439 28.3288C37.1281 28.2771 37.1235 28.2226 37.1302 28.169C37.1302 27.9021 37.2909 27.5787 37.2909 27.2022C37.3078 26.8388 37.1998 26.4806 36.9848 26.1873C36.7698 25.894 36.4609 25.6833 36.1095 25.5903C35.9464 25.5586 35.7991 25.4721 35.6918 25.3451C35.5846 25.2182 35.5238 25.0584 35.5196 24.8922C35.5196 24.4627 35.841 24.4097 36.0494 24.4097C36.2578 24.4097 36.4256 24.4627 36.4256 24.3019C36.4256 24.141 36.2649 24.0332 35.9435 24.0332C35.5673 24.0332 35.0305 24.3019 35.0305 24.8922C35.0268 25.0126 35.0488 25.1325 35.0951 25.2438C35.1414 25.355 35.2109 25.4551 35.2989 25.5373C35.0448 25.5812 34.8142 25.713 34.6474 25.9097C34.4805 26.1065 34.388 26.3556 34.3859 26.6137C34.3859 26.9884 34.4919 27.3631 34.7621 27.3631C35.0835 27.3631 34.815 27.0944 34.815 26.6649C34.815 26.1824 35.2442 25.9686 35.675 25.9686C36.2649 25.9686 36.8017 26.4988 36.8017 27.2058C36.8017 28.0117 36.1572 28.549 35.1364 28.549C34.7307 28.5678 34.326 28.4942 33.9528 28.3338C33.5797 28.1734 33.2477 27.9303 32.982 27.6229C31.8536 26.3857 31.2161 25.3128 31.2161 23.381C31.2161 20.9066 32.982 18.7592 35.5656 18.0611C35.845 17.9806 36.0905 17.8111 36.2649 17.5782C36.4392 17.3453 36.5329 17.0618 36.5315 16.7709C36.5315 16.2406 36.2101 15.8058 35.6733 15.8058C35.4578 15.8058 35.2971 15.8571 35.2971 16.0197C35.2971 16.1823 35.4578 16.1805 35.5656 16.1805C35.707 16.1966 35.8365 16.2673 35.9266 16.3776C36.0166 16.4878 36.0601 16.629 36.0477 16.7709C36.0476 16.8884 36.0236 17.0047 35.977 17.1127C35.9304 17.2206 35.8623 17.3178 35.7768 17.3984C35.6913 17.479 35.5902 17.5413 35.4798 17.5814C35.3694 17.6215 35.2519 17.6386 35.1347 17.6316C34.5449 17.6316 34.1687 17.2021 34.1687 16.61C34.1687 15.4824 35.5126 14.7295 36.5315 14.2487C35.6185 13.8175 35.2954 13.6566 34.5978 13.1193C34.5265 13.0513 34.4705 12.9688 34.4336 12.8774C34.3968 12.7859 34.3799 12.6876 34.3842 12.5891C34.3842 12.3205 34.5449 12.1048 34.7603 12.1048C34.7961 12.1028 34.8319 12.1083 34.8654 12.1211C34.8989 12.1339 34.9293 12.1536 34.9547 12.179C34.98 12.2043 34.9997 12.2348 35.0125 12.2683C35.0252 12.3018 35.0308 12.3377 35.0287 12.3735C35.0287 12.5343 34.921 12.5343 34.921 12.6421C34.9177 12.664 34.9196 12.6864 34.9265 12.7074C34.9334 12.7284 34.9452 12.7475 34.9608 12.7631C34.9764 12.7788 34.9955 12.7905 35.0165 12.7975C35.0375 12.8044 35.0598 12.8063 35.0817 12.803C35.1894 12.803 35.4578 12.6969 35.4578 12.2727C35.4595 12.183 35.4422 12.0939 35.407 12.0113C35.3718 11.9287 35.3195 11.8545 35.2537 11.7936C35.1878 11.7326 35.1098 11.6864 35.0247 11.6578C34.9397 11.6292 34.8496 11.6189 34.7603 11.6276C34.6428 11.6277 34.5266 11.6517 34.4188 11.6984C34.311 11.745 34.2138 11.8132 34.1332 11.8987C34.0527 11.9843 33.9905 12.0855 33.9504 12.196C33.9104 12.3065 33.8933 12.424 33.9003 12.5414C33.4801 12.1943 33.0852 11.8174 32.7189 11.4138L31.0006 9.53323C30.5168 9.003 30.7852 7.97613 31.4827 7.97613C31.5497 7.97132 31.6169 7.9802 31.6803 8.00224C31.7438 8.02428 31.802 8.05902 31.8516 8.10433C31.9012 8.14964 31.941 8.20458 31.9687 8.26579C31.9963 8.32701 32.0112 8.39323 32.0125 8.4604C32.0125 8.94291 31.5286 8.72729 31.5286 8.99063C31.5279 9.01851 31.5332 9.04622 31.5442 9.07187C31.5551 9.09752 31.5714 9.12051 31.592 9.13929C31.6127 9.15806 31.6371 9.17218 31.6636 9.18069C31.6901 9.1892 31.7182 9.19189 31.7459 9.18858C31.8496 9.18991 31.9524 9.16954 32.0478 9.1288C32.1432 9.08805 32.2291 9.02782 32.2999 8.95195C32.3707 8.87609 32.4249 8.78627 32.4591 8.68824C32.4932 8.5902 32.5065 8.48611 32.4981 8.38264C32.4836 8.12625 32.3678 7.88615 32.1764 7.71513C31.985 7.54411 31.7336 7.45617 31.4774 7.47064C30.7711 7.47064 30.2978 8.00087 30.2978 8.76087L29.7592 8.16878C27.3964 5.5901 25.4644 4.45718 23.5784 4.45718C22.9707 4.44707 22.3733 4.61544 21.8602 4.94145C21.605 4.63617 21.3719 4.31309 21.1626 3.97467C20.9504 4.31331 20.7144 4.63639 20.4563 4.94145C19.9431 4.61544 19.3457 4.44707 18.738 4.45718C16.8591 4.45718 14.9254 5.58656 12.5572 8.16878L12.0275 8.76087C12.0275 8.00794 11.5436 7.47064 10.8461 7.47064C10.5899 7.45617 10.3384 7.54411 10.147 7.71513C9.95563 7.88615 9.83992 8.12625 9.82535 8.38264C9.81725 8.48606 9.83076 8.59003 9.86499 8.68794C9.89923 8.78586 9.95345 8.87557 10.0242 8.95137C10.095 9.02717 10.1807 9.08741 10.276 9.12825C10.3713 9.16909 10.474 9.18964 10.5776 9.18858C10.6064 9.19164 10.6356 9.18822 10.6629 9.17855C10.6902 9.16889 10.715 9.15323 10.7355 9.13273C10.756 9.11222 10.7716 9.08739 10.7813 9.06005C10.7909 9.03271 10.7944 9.00356 10.7913 8.97472C10.7913 8.70607 10.3092 8.9217 10.3092 8.44449C10.3102 8.37724 10.325 8.3109 10.3526 8.24957C10.3801 8.18823 10.42 8.13319 10.4696 8.08783C10.5192 8.04247 10.5776 8.00775 10.6411 7.9858C10.7046 7.96386 10.772 7.95515 10.839 7.96022C11.5365 7.96022 11.805 8.98003 11.3229 9.51733L9.60284 11.3979C9.23647 11.8015 8.84166 12.1784 8.42143 12.5255C8.4284 12.4083 8.41139 12.2909 8.37144 12.1805C8.33148 12.0701 8.26943 11.969 8.18908 11.8835C8.10873 11.7979 8.01177 11.7297 7.90415 11.683C7.79653 11.6362 7.6805 11.612 7.56319 11.6117C7.47322 11.6016 7.38213 11.6109 7.29603 11.6389C7.20992 11.6669 7.13078 11.713 7.06391 11.774C6.99703 11.8351 6.94396 11.9098 6.90824 11.993C6.87253 12.0763 6.855 12.1662 6.85682 12.2568C6.85682 12.6881 7.12524 12.7871 7.23296 12.7871C7.25482 12.7904 7.27715 12.7885 7.29814 12.7815C7.31914 12.7746 7.33822 12.7629 7.35385 12.7472C7.36948 12.7316 7.38122 12.7125 7.38814 12.6915C7.39505 12.6705 7.39694 12.6481 7.39366 12.6262C7.39366 12.5184 7.2877 12.5184 7.2877 12.3576C7.28537 12.3217 7.29071 12.2857 7.30337 12.2521C7.31603 12.2184 7.33572 12.1879 7.36113 12.1624C7.38654 12.137 7.41708 12.1173 7.4507 12.1046C7.48433 12.0919 7.52027 12.0866 7.55613 12.0889C7.77157 12.0889 7.93227 12.3046 7.93227 12.5732C7.93617 12.6718 7.91897 12.7702 7.88181 12.8616C7.84466 12.9531 7.7884 13.0355 7.71682 13.1034C7.07226 13.7485 6.69612 13.8104 5.78313 14.2328C6.80384 14.7136 8.14595 15.47 8.14595 16.5941C8.14595 17.1862 7.77157 17.6157 7.17998 17.6157C7.06273 17.6227 6.94528 17.6056 6.83486 17.5655C6.72444 17.5254 6.62338 17.4631 6.53787 17.3825C6.45237 17.3019 6.38424 17.2047 6.33766 17.0967C6.29107 16.9888 6.26703 16.8725 6.26699 16.7549C6.25506 16.6129 6.29892 16.4718 6.38927 16.3615C6.47961 16.2513 6.60932 16.1807 6.75086 16.1646C6.85682 16.1646 7.01928 16.1646 7.01928 16.0038C7.01928 15.843 6.85682 15.7899 6.64314 15.7899C6.11336 15.7899 5.78313 16.2194 5.78313 16.7549C5.7822 17.0461 5.87619 17.3296 6.05084 17.5625C6.22548 17.7953 6.47126 17.9648 6.75086 18.0452C9.32736 18.7981 11.1003 20.8925 11.1003 23.3651C11.1003 25.2987 10.4028 26.3185 9.33442 27.607C9.07103 27.9122 8.74233 28.1541 8.37271 28.3148C8.00309 28.4754 7.60206 28.5506 7.19941 28.5349C6.1787 28.5349 5.53413 28.0046 5.53413 27.1916C5.53413 26.4935 6.06391 25.9544 6.66256 25.9544C7.09169 25.9544 7.52081 26.1683 7.52081 26.6508C7.52081 27.0803 7.25239 27.3489 7.57555 27.3489C7.84397 27.3489 7.95169 26.9742 7.95169 26.5995C7.94931 26.3416 7.85666 26.0926 7.68985 25.896C7.52305 25.6993 7.29264 25.5674 7.03871 25.5232C7.12639 25.4407 7.19563 25.3405 7.2419 25.2294C7.28816 25.1182 7.31039 24.9984 7.30713 24.878C7.30713 24.2877 6.77735 24.0191 6.39414 24.0191C6.07098 24.0191 5.91028 24.1269 5.91028 24.2877C5.91028 24.4486 6.07098 24.3955 6.28642 24.3955C6.50186 24.3955 6.8162 24.4486 6.8162 24.878C6.8117 25.0442 6.75084 25.2038 6.64364 25.3307C6.53644 25.4575 6.38929 25.5441 6.22638 25.5762C5.87466 25.6688 5.56532 25.8794 5.35 26.1727C5.13467 26.4661 5.02638 26.8245 5.0432 27.1881C5.0432 27.5645 5.20567 27.8951 5.20567 28.1549C5.21239 28.2085 5.20771 28.2629 5.19194 28.3146C5.17616 28.3663 5.14965 28.4141 5.11413 28.4548C5.07861 28.4955 5.0349 28.5283 4.98585 28.5509C4.9368 28.5735 4.88353 28.5855 4.82953 28.5861C4.29975 28.5861 4.5611 27.941 4.23794 27.941C4.07724 27.941 4.02426 28.1018 4.02426 28.2644C4.02426 28.6939 4.23794 29.0704 4.82953 29.0704C5.01062 29.0762 5.18842 29.0211 5.33444 28.9137C5.48046 28.8063 5.58623 28.653 5.63479 28.4783C6.01093 28.853 6.6555 29.0085 7.24532 29.0085C7.50009 29.0109 7.75375 28.9746 7.99761 28.9007C6.11866 30.6204 5.68777 31.5342 5.25865 32.501C5.18648 32.3795 5.08254 32.2801 4.95806 32.2135C4.83358 32.1468 4.69327 32.1154 4.55227 32.1227C4.0225 32.1227 3.74701 32.4462 3.74701 32.9305C3.74701 33.0365 3.74701 33.3599 4.01543 33.3599C4.22911 33.3599 4.12315 33.1443 4.12315 32.9835C4.12373 32.9297 4.13566 32.8766 4.15818 32.8277C4.1807 32.7788 4.21329 32.7353 4.25381 32.6999C4.29434 32.6645 4.34187 32.6381 4.39331 32.6224C4.44475 32.6067 4.49892 32.6021 4.55227 32.6088C4.9814 32.6088 5.08206 32.9835 4.9814 33.5756C4.93734 33.8596 4.9196 34.1472 4.92842 34.4345C4.92842 36.9584 6.80737 38.7859 9.27791 38.7859C9.63795 38.7763 9.99681 38.7403 10.3516 38.6781L11.1039 39.8075C10.8457 39.881 10.6178 40.0353 10.4536 40.2477C10.2893 40.4601 10.1972 40.7196 10.1909 40.9882C10.188 41.1514 10.218 41.3136 10.2791 41.465C10.3402 41.6164 10.4312 41.7539 10.5466 41.8694C10.6619 41.9849 10.7993 42.0759 10.9506 42.137C11.1019 42.1982 11.2639 42.2282 11.427 42.2254C11.8579 42.2254 12.1793 42.0097 12.1793 41.7941C12.1821 41.7653 12.1784 41.7363 12.1686 41.7091C12.1589 41.682 12.1432 41.6573 12.1228 41.6368C12.1024 41.6164 12.0777 41.6007 12.0505 41.591C12.0234 41.5812 11.9944 41.5775 11.9657 41.5802C11.8032 41.5802 11.8032 41.7411 11.4359 41.7411C11.3364 41.7435 11.2375 41.7257 11.1451 41.6887C11.0528 41.6517 10.9689 41.5964 10.8985 41.526C10.8282 41.4556 10.7729 41.3716 10.7359 41.2791C10.699 41.1867 10.6812 41.0877 10.6836 40.9882C10.6836 40.5604 11.0615 40.237 11.5966 40.237C12.6173 40.237 13.1011 41.4194 13.7987 42.6001L14.5051 43.7825C15.6335 45.716 17.4577 46.8437 18.9623 46.8437C19.1785 46.8524 19.395 46.8346 19.6068 46.7906C20.2514 47.4357 20.896 48.6164 21.1644 49.1537C21.4328 48.6235 22.0756 47.4357 22.7219 46.7906C22.9338 46.8346 23.1503 46.8524 23.3665 46.8437C24.8693 46.8437 26.6953 45.716 27.8237 43.7825L28.5213 42.6001C29.2188 41.4194 29.7027 40.237 30.7234 40.237C31.2532 40.237 31.6364 40.5604 31.6364 40.9882C31.6388 41.0877 31.621 41.1867 31.584 41.2791C31.5471 41.3716 31.4918 41.4556 31.4214 41.526C31.3511 41.5964 31.2672 41.6517 31.1748 41.6887C31.0824 41.7257 30.9835 41.7435 30.8841 41.7411C30.5079 41.7411 30.5079 41.5802 30.3543 41.5802C30.3254 41.5772 30.2962 41.5807 30.2688 41.5903C30.2415 41.6 30.2166 41.6156 30.1959 41.6361C30.1753 41.6566 30.1595 41.6813 30.1496 41.7087C30.1398 41.736 30.1361 41.7652 30.1389 41.7941C30.1389 42.0097 30.462 42.2254 30.8911 42.2254C31.0542 42.228 31.2161 42.1978 31.3673 42.1365C31.5184 42.0753 31.6558 41.9843 31.7711 41.8688C31.8864 41.7534 31.9774 41.616 32.0385 41.4647C32.0997 41.3134 32.1299 41.1514 32.1273 40.9882C32.1186 40.7218 32.0257 40.465 31.8619 40.2547C31.6982 40.0445 31.4721 39.8916 31.2161 39.8181L31.9666 38.6887C32.3214 38.7508 32.6802 38.7868 33.0403 38.7965C35.5126 38.7965 37.3915 36.969 37.3915 34.4451C37.4004 34.1578 37.3826 33.8703 37.3386 33.5862C37.2308 32.9941 37.3386 32.6194 37.7677 32.6194C37.821 32.6127 37.8752 32.6173 37.9266 32.633C37.9781 32.6487 38.0256 32.6751 38.0661 32.7105C38.1067 32.7459 38.1393 32.7894 38.1618 32.8383C38.1843 32.8872 38.1962 32.9403 38.1968 32.9941C38.1968 33.1549 38.0891 33.3705 38.3045 33.3705C38.5729 33.3705 38.5729 33.0471 38.5729 32.9411C38.5729 32.4568 38.3045 32.1333 37.7677 32.1333L37.7818 32.1369ZM36.3708 41.3752C34.008 43.7931 30.5168 45.511 27.188 47.1247C24.9859 48.1993 22.8385 49.2721 21.1732 50.5623C19.5079 49.2721 17.3588 48.1993 15.1585 47.1247C11.8279 45.511 8.33843 43.7931 5.97562 41.3752C2.97353 38.314 1.51664 35.1892 1.51664 31.6544C1.51664 28.6497 2.69981 26.1206 5.38403 22.7359C5.59771 22.4655 5.81315 22.1969 5.81315 21.983C5.81315 21.7691 5.59771 21.3379 5.49175 21.124L3.61103 17.0395C3.18191 16.1275 2.75279 15.2721 2.75279 14.3548C2.75279 13.6019 3.23666 13.0646 3.87946 12.5273L6.56544 10.1112C6.61214 10.0617 6.64232 9.99883 6.65181 9.93139C6.6613 9.86395 6.64964 9.79523 6.61842 9.73472L5.76017 7.96729C5.65245 7.75166 5.65245 7.58906 5.81315 7.48302C8.44439 5.71559 10.6465 5.17299 13.8146 4.31225C16.8167 3.5063 19.5079 2.80817 21.1732 1.73357C22.8385 2.80817 25.5227 3.501 28.5301 4.31225C31.6982 5.17299 33.8473 5.81633 36.5315 7.48302C36.6922 7.58906 36.6922 7.75166 36.5845 7.96729L35.7263 9.73472C35.6958 9.79553 35.6847 9.86424 35.6945 9.93157C35.7043 9.99889 35.7345 10.0616 35.781 10.1112L38.4564 12.5255C39.101 13.0557 39.5831 13.6001 39.5831 14.353C39.5831 15.2668 39.1539 16.1204 38.7248 17.0377L36.8494 21.1223C36.7417 21.3361 36.5262 21.7674 36.5262 21.9812C36.5262 22.1951 36.7417 22.4637 36.9553 22.7342C39.8568 25.958 40.8227 28.6427 40.8227 31.6526C40.8227 35.1875 39.3729 38.314 36.3655 41.3735L36.3708 41.3752ZM38.889 22.8932C38.4069 22.3011 38.1385 22.0325 38.1385 21.8186C38.1385 21.6048 38.2992 21.2884 38.4599 20.9049L40.0705 17.3594C40.5543 16.2848 40.9834 15.371 40.9834 14.2452C40.9834 13.4375 40.662 12.6315 39.8568 11.9334L37.5469 9.94504C37.4546 9.86836 37.3929 9.761 37.3731 9.64255C37.3533 9.52411 37.3768 9.4025 37.4392 9.29993L38.2992 7.36636C38.3327 7.30201 38.3402 7.22721 38.3202 7.15747C38.3001 7.08772 38.2541 7.02836 38.1915 6.99167C35.5603 5.22424 32.5529 4.14257 29.7062 3.33663C26.8595 2.58547 23.0469 1.51087 21.1679 0.0598145C19.2872 1.51087 15.4746 2.53421 12.6279 3.33663C9.7812 4.13904 6.77558 5.21894 4.15141 6.99167C4.08818 7.02773 4.04152 7.08709 4.0214 7.15709C4.00127 7.22709 4.00927 7.30218 4.04369 7.36636L4.9037 9.3017C4.96667 9.40396 4.99063 9.52554 4.97116 9.64407C4.95169 9.7626 4.89011 9.87011 4.79774 9.94681L2.4879 11.9352C1.68264 12.6421 1.35947 13.4392 1.35947 14.247C1.35947 15.3728 1.78859 16.2866 2.27246 17.3612L3.88299 20.9066C4.04545 21.2831 4.20615 21.6048 4.20615 21.8204C4.20615 22.036 3.93773 22.3029 3.45387 22.895C1.03807 25.8996 0.070343 28.374 0.070343 31.6526C0.070343 36.2179 2.32544 39.7085 4.9037 42.3438C7.53493 45.0285 11.1869 46.8012 14.5174 48.4131C16.7195 49.4877 19.0276 50.5623 21.1768 52.282C23.3241 50.5623 25.634 49.4877 27.8361 48.4131C31.1649 46.8012 34.8716 45.0285 37.448 42.3438C40.0263 39.7085 42.2814 36.2179 42.2814 31.6526C42.2814 28.374 41.3154 25.9032 38.8979 22.895" fill="white"/>
<path d="M24.8852 33.0489C24.6227 33.666 24.193 34.1973 23.6448 34.583C23.0965 34.9687 22.4515 35.1934 21.7825 35.2316C19.2766 35.4384 19.2395 32.4621 19.2395 32.4621V25.1997H19.3137C20.1207 25.1155 20.9363 25.1857 21.7171 25.4065C23.974 26.0463 25.5898 28.0842 25.5086 30.4295C25.4734 31.335 25.2616 32.2248 24.8852 33.0489ZM19.2342 15.219C19.2342 15.219 19.764 13.8157 21.7542 13.9659C23.7444 14.1162 24.8234 15.7493 24.8799 17.3506C24.9364 18.9519 25.362 22.4991 21.2756 23.9219H19.2395L19.2342 15.219ZM26.6247 28.4076C26.4224 27.6324 26.0775 26.9017 25.6075 26.2531C24.5479 24.825 23.3277 24.3584 23.2747 24.3408C23.5634 24.1771 23.8407 23.994 24.1047 23.7928C24.9588 23.1431 25.6011 22.2543 25.9501 21.2389C26.4622 19.7925 26.5286 18.2255 26.1408 16.7408C25.2578 13.4286 22.8968 12.9338 22.8968 12.9338C22.8968 12.9338 20.1507 11.845 18.2612 14.2399C18.24 14.2063 17.214 12.6262 15.3986 13.4552C13.8269 14.3212 14.7311 15.691 15.1178 15.9296C15.1178 15.9296 15.6317 16.2707 15.9266 15.9296C16.1421 15.675 15.9266 15.4117 15.8048 15.235C15.5788 14.8815 15.9531 14.4873 16.4794 14.4962C16.9368 14.4962 17.8497 14.8497 17.8497 16.0869V32.8774C17.8497 33.0171 17.7067 33.9131 16.9526 33.8955C16.1986 33.8778 15.9249 33.0895 16.3558 32.6583C16.3271 32.5887 16.2809 32.5278 16.2215 32.4815C16.1438 32.4409 14.9854 32.4091 15.1214 33.6374C15.2574 34.8658 16.7284 35.4596 18.1464 34.6873C18.4929 35.2962 18.9968 35.8005 19.6052 36.1473C20.2136 36.494 20.9041 36.6704 21.6041 36.658C24.087 36.658 25.6446 34.5759 25.6446 34.5759C25.6446 34.5759 27.6365 32.1563 26.6211 28.4306" fill="white"/>
<path d="M16.2057 31.5077C18.0192 32.8648 20.2482 33.5478 22.51 33.4395C24.0457 33.3774 25.5329 32.8837 26.8012 32.0149C30.4708 29.4522 28.8303 26.1276 28.7226 25.8289C28.7226 25.8289 27.7089 23.5189 25.2154 22.6599C25.2154 22.6599 23.3418 22.0307 20.368 21.8133C17.3941 21.5959 16.2286 20.3234 16.6825 18.7627C17.1363 17.2021 19.4514 16.4987 20.8836 16.4085C22.9228 16.2916 24.9445 16.8432 26.6423 17.9798C26.9389 18.2169 27.2143 18.4794 27.4652 18.7645C27.4652 18.7645 27.8714 19.2947 28.1292 19.0226C28.3482 18.784 27.9668 18.4499 27.9668 18.4499C27.5522 17.9493 27.3052 17.3311 27.2604 16.6825C27.2193 16.2395 27.211 15.7941 27.2357 15.3498C27.2538 15.1706 27.2869 14.9933 27.3346 14.8196C27.3769 14.6694 27.4123 14.4538 27.195 14.4166C27.0185 14.3866 26.9319 14.5934 26.9143 14.6252C26.7005 14.986 26.3781 15.2698 25.9934 15.4362C25.6087 15.6025 25.1812 15.6428 24.7722 15.5513C22.3688 15.0299 20.8871 15.0547 20.8871 15.0547C20.8871 15.0547 18.0828 14.8603 16.2057 16.8769C15.791 17.3092 15.484 17.8334 15.3098 18.4067C15.1355 18.9801 15.0988 19.5865 15.2026 20.1767C15.6494 22.4319 17.9804 23.2609 20.3803 23.2361C21.3314 23.2255 22.2803 23.3311 23.2058 23.5507C23.7242 23.6697 24.2321 23.8304 24.7245 24.0315C25.3525 24.2816 25.9164 24.6694 26.3748 25.1664C26.8332 25.6635 27.1745 26.2571 27.3734 26.9035C27.716 28.1001 27.5906 29.7067 25.4115 31.0057C21.3887 33.4094 16.5465 31.1825 14.5174 26.4458C14.4781 26.368 14.4096 26.3089 14.3269 26.2814C14.2442 26.2539 14.154 26.2603 14.0759 26.2991C13.8199 26.4051 13.9612 26.7692 13.9612 26.7692C13.9612 26.7692 14.7152 28.1284 14.5704 29.1994C14.4538 29.9255 14.0702 30.5817 13.495 31.0393C13.2866 31.2302 13.0305 31.4582 13.2301 31.6561C13.4296 31.8541 13.6398 31.7445 13.9364 31.4794H13.9488C14.2807 31.2441 14.6786 31.1201 15.0854 31.1252C15.4921 31.1303 15.8868 31.2642 16.2127 31.5077" fill="white"/>
<path d="M20.8836 15.3233V35.1044C20.8923 35.8207 20.7364 36.5294 20.428 37.1758C20.0872 37.8669 19.5221 38.5579 18.6197 38.5579C18.6197 38.5579 17.5601 38.6481 17.2175 37.98C16.8096 37.1953 17.4948 36.8895 17.4948 36.8895C17.4948 36.8895 17.9716 36.6703 17.7438 36.3009C17.516 35.9315 17.0092 36.1242 17.0092 36.1242C16.7452 36.2299 16.5053 36.3876 16.3035 36.588C16.1018 36.7884 15.9424 37.0274 15.8348 37.2907C15.4463 38.1992 16.0856 39.7156 17.8215 39.8818C18.5032 39.95 19.1909 39.836 19.8142 39.5512C20.4375 39.2665 20.9741 38.8212 21.3692 38.261C21.3692 38.261 22.6372 39.7633 24.479 40.0072C24.479 40.0072 24.6998 40.0337 24.7634 39.9401C24.8269 39.8464 24.8411 39.6926 24.5462 39.4876C24.2512 39.2826 22.5453 38.2999 22.5524 36.5837V14.6676C22.5463 14.0632 22.693 13.467 22.9789 12.9346C23.2649 12.4022 23.6807 11.9508 24.1877 11.6223L24.2318 11.5958C24.9164 11.2226 25.6433 10.933 26.3968 10.7333C26.3968 10.7333 26.8189 10.6591 26.8683 10.4505C26.9178 10.242 26.7959 10.1112 26.5152 10.1412C25.9731 10.184 25.4389 10.2969 24.9258 10.477C24.1682 10.7457 23.2535 11.2865 21.7842 11.2883C20.6505 11.2883 19.1353 10.8889 18.4943 10.705C18.3341 10.6562 18.1772 10.5971 18.0246 10.5283C17.8762 10.4629 17.6714 10.394 17.5407 10.4806C17.5083 10.5055 17.4812 10.5366 17.4608 10.5721C17.4405 10.6076 17.4275 10.6468 17.4224 10.6874C17.4144 10.7518 17.4272 10.8171 17.459 10.8737C17.4908 10.9303 17.5398 10.9753 17.599 11.002C18.0387 11.2795 18.1605 11.2529 18.5738 11.4668C19.0588 11.7141 19.4921 12.0519 19.8505 12.4619C20.5301 13.2601 20.8966 14.2783 20.8818 15.3269" fill="white"/>
</svg>
