<svg width="101" height="30" viewBox="0 0 101 30" fill="none" xmlns="http://www.w3.org/2000/svg">
<g clip-path="url(#clip0_157_12741)">
<path d="M45.2748 11.2324C45.3358 9.56466 43.9337 8.01744 40.9668 7.97725C38.8738 7.95716 37.3294 8.66044 37.1871 10.3684C37.0652 11.7951 37.5529 12.0764 38.508 12.4381C38.9957 12.9605 42.9583 13.5834 43.7508 13.7241C44.909 13.925 47.3679 14.4274 48.6887 15.7736C51.1069 18.2653 49.9893 23.1882 47.3679 24.856C45.5796 25.9813 43.1411 26.2827 40.8246 26.3028C39.7679 26.3229 37.2278 25.9612 35.6834 24.856C33.8139 23.5298 32.8994 21.4803 32.7572 19.5312H36.9433C36.9433 20.0737 37.1262 20.9176 37.8374 21.6611C38.7925 22.6256 40.3369 22.9471 41.7796 22.8868C43.2224 22.8667 44.5636 22.4448 45.1123 21.9223C46.0267 21.0784 46.2299 19.4508 45.1935 18.4461C43.8117 17.0195 39.6866 17.0194 36.9839 16.1152C34.708 15.3517 32.8588 13.7241 33.2043 10.3885C33.5294 7.03285 35.9476 4.6015 41.0481 4.6015C42.1657 4.6015 46.0673 4.68188 48.0994 7.23379C49.1967 8.62026 49.4812 10.5493 49.2983 11.2324H45.2748Z" fill="white"/>
<path d="M60.6779 18.3858C59.5196 19.069 57.9752 19.0087 56.9389 19.2097C55.6993 19.4307 54.8458 20.4555 55.1913 21.7013C55.4148 22.6055 56.126 23.2686 57.8533 22.9672C60.2308 22.6055 60.6576 20.9578 60.6576 19.2499V18.3858H60.6779ZM61.1453 25.6196C60.8608 25.2579 60.6779 24.635 60.7185 24.0925C59.3164 25.3986 58.0768 26.2827 55.7196 26.2827C52.5699 26.2827 51.0052 24.5345 51.1271 21.5406C51.2084 19.3704 52.0822 17.2807 55.6383 16.6779C57.1217 16.6176 58.7271 16.276 59.6822 15.9746C60.3934 15.7134 60.7388 14.99 60.6779 14.2465C60.6779 13.282 59.8651 12.86 58.0362 12.86C55.7399 12.86 55.4554 14.2465 55.3945 15.3517H51.6148C51.6758 10.4488 55.9228 9.98663 58.0362 9.98663C59.5806 9.98663 60.9421 10.2479 61.7142 10.5493C63.2586 11.1722 64.4982 12.418 64.4982 14.8694V23.2686C64.4779 23.9518 64.8843 24.635 65.3923 25.0771V25.6196H61.1453Z" fill="white"/>
<path d="M66.0631 10.5492H68.2578V8.76088C68.2578 6.47019 69.4364 4.92297 72.0374 4.92297H74.5369V7.87676H73.1347C72.5861 7.87676 72.2813 8.21835 72.2813 8.92163V10.5492H74.6588V13.1815H72.2813V25.6196H68.2578V13.2016H66.0631V10.5492Z" fill="white"/>
<path d="M76.4061 10.2478H80.4297V13.2217H80.4906C80.7548 12.3175 80.958 11.775 82.3601 10.8105C83.051 10.3081 83.9655 9.78567 85.2254 9.98661V14.0456C83.4981 13.8446 80.9174 13.6236 80.4297 16.9591V25.6196H76.4061V10.2478Z" fill="white"/>
<path d="M95.4469 18.3858C94.309 19.069 92.7443 19.0087 91.7282 19.2097C90.4886 19.4307 89.6352 20.4555 89.9806 21.7013C90.2041 22.6055 90.9357 23.2686 92.6426 22.9672C95.0202 22.6055 95.4469 20.9578 95.4469 19.2499V18.3858ZM95.9143 25.6196C95.6298 25.2579 95.4469 24.635 95.4876 24.0925C94.0854 25.3986 92.8459 26.2827 90.4886 26.2827C87.3389 26.2827 85.7742 24.5345 85.8961 21.5406C85.9774 19.3905 86.8309 17.2807 90.4074 16.6779C91.8908 16.6176 93.4961 16.276 94.4512 15.9746C95.1827 15.7134 95.5079 14.99 95.4469 14.2465C95.4469 13.282 94.6544 12.86 92.8052 12.86C90.509 12.86 90.2245 14.2465 90.1635 15.3517H86.3838C86.4448 10.4488 90.6919 9.98663 92.8052 9.98663C94.3496 9.98663 95.7111 10.2479 96.4833 10.5493C98.0277 11.1722 99.2672 12.418 99.2672 14.8694V23.2686C99.2469 23.9518 99.633 24.635 100.161 25.0771V25.6196H95.9143Z" fill="white"/>
<path d="M15.1593 16.9392C15.0984 15.5125 14.5497 14.6284 14.001 14.1059C14.7123 14.1059 15.708 14.7288 15.708 15.7134C15.7283 16.256 15.5454 16.6578 15.1593 16.9392ZM12.7411 19.6719V18.3055C13.2695 18.2854 13.7369 18.2453 14.1433 18.1649C13.9401 19.0892 13.4117 19.5313 12.7411 19.6719ZM10.77 18.0644C11.0342 18.1649 11.3593 18.2252 11.7861 18.2654V19.6317C11.2781 19.471 10.831 18.9485 10.77 18.0644ZM10.77 14.1059H11.8064V17.4214C11.4203 17.3812 11.0748 17.2808 10.77 17.1602V14.1059ZM9.14437 11.8755C9.14437 11.3732 9.3679 10.9512 9.83527 10.6297V13.0611C9.38822 12.8199 9.14437 12.3779 9.14437 11.8755ZM11.8064 8.03762V9.28343C11.4609 9.28343 11.1358 9.32362 10.8107 9.3839C10.9123 8.78109 11.2781 8.25865 11.8064 8.03762ZM13.7978 9.60493C13.5133 9.50446 13.1679 9.404 12.7208 9.34371V7.99743C13.2288 8.15818 13.6556 8.66053 13.7978 9.60493ZM12.7411 13.2218V10.1676C13.1272 10.2278 13.5133 10.3082 13.8588 10.4489C13.8182 11.7751 13.1476 13.0008 12.7411 13.2218ZM10.77 10.2479C11.0748 10.1676 11.4203 10.1274 11.8064 10.1274V13.262H10.77V10.2479ZM14.2246 17.3209C13.8182 17.4214 13.3101 17.4616 12.7208 17.4817V14.1059C13.1476 14.2064 14.2246 15.2111 14.2246 17.2205C14.2246 17.2607 14.2246 17.2808 14.2246 17.3209ZM13.8588 13.262H13.8182C14.2855 12.6994 14.6513 11.7952 14.7732 10.8708C15.0984 11.0718 15.4032 11.2928 15.647 11.5339C15.769 11.6545 15.8299 11.7148 15.9315 11.7148C16.1144 11.7148 16.216 11.554 16.1144 11.4134C15.8706 11.0115 15.769 10.6699 15.769 10.2479C15.769 9.96662 15.8706 9.7255 15.9315 9.56474C15.9925 9.40399 15.9315 9.26334 15.7486 9.26334C15.5861 9.26334 15.5657 9.3839 15.5048 9.48437C15.3829 9.68531 15.1593 9.86615 14.7936 9.88625C14.6513 8.21846 13.7978 7.39462 12.9037 7.17359C13.2288 6.43012 14.0214 5.96796 15.0577 5.74693C15.2203 5.70674 15.3422 5.64646 15.3422 5.5259C15.3422 5.36515 15.2203 5.30486 15.0577 5.30486C14.7123 5.30486 14.2246 5.48571 13.8182 5.60627C13.1882 5.78712 12.6599 5.90768 12.1925 5.90768C11.1968 5.90768 10.323 5.46562 10.0385 5.46562C9.91656 5.46562 9.81495 5.56608 9.81495 5.68665C9.81495 5.78712 9.87592 5.86749 10.0588 5.92777C10.892 6.18899 11.4203 6.61096 11.6641 7.19368C11.1764 7.37452 10.77 7.73621 10.4855 8.21846C10.1604 7.55537 9.73367 7.25396 9.12405 7.25396C8.53474 7.25396 8.06736 7.69602 8.06736 8.21846C8.06736 8.58015 8.31121 8.86146 8.5957 8.86146C8.71763 8.86146 8.77859 8.80118 8.77859 8.70071C8.77859 8.58015 8.71763 8.53996 8.71763 8.35912C8.71763 8.17827 8.8802 8.01753 9.12405 8.01753C9.48982 8.01753 9.83527 8.37921 9.83527 9.40399V9.66521C8.85987 10.0872 8.20961 10.8507 8.20961 11.8755C8.20961 12.9405 8.92084 13.7242 9.83527 13.9854V16.5976C9.14437 16.0349 8.73795 15.3116 8.4941 14.7891C8.43314 14.6686 8.37218 14.5078 8.20961 14.5078C8.02672 14.5078 7.96576 14.6887 8.04704 14.9097C8.14865 15.1307 8.20961 15.4723 8.20961 15.7737C8.20961 16.1354 8.08768 16.477 7.84383 16.7382C7.72191 16.8588 7.62031 16.9593 7.62031 17.0396C7.62031 17.1602 7.72191 17.2205 7.80319 17.2205C7.98608 17.2205 8.20961 16.9994 8.61602 16.9994C8.85987 16.9994 9.18501 17.12 9.67271 17.4415C9.73367 17.4817 9.77431 17.5018 9.83527 17.542V17.9037V18.3256C9.83527 18.7677 9.65239 19.0289 9.26629 19.0289C9.02244 19.0289 8.85987 18.8481 8.85987 18.6069C8.85987 18.4261 8.9818 18.3658 8.9818 18.2654C8.9818 18.1649 8.92084 18.1046 8.79891 18.1046C8.61602 18.1046 8.29089 18.3859 8.29089 18.8481C8.29089 19.27 8.5957 19.8126 9.26629 19.8126C9.63206 19.8126 9.97752 19.692 10.3027 19.3906C10.6075 19.8729 11.1358 20.2948 11.7454 20.4556C11.5829 21.2794 11.0139 21.9425 10.201 21.9425C9.79463 21.9425 9.5711 21.7215 9.5711 21.4402C9.5711 21.2191 9.73367 21.0986 9.85559 21.0383C10.0182 20.978 10.1401 20.9378 10.1401 20.757C10.1401 20.6565 10.0791 20.5359 9.77431 20.5359C9.20533 20.5359 8.73795 21.0383 8.73795 21.621C8.73795 22.264 9.20533 22.8869 10.1807 22.8869C11.0139 22.8869 11.7251 22.485 12.1722 21.9827C12.7005 22.4047 13.5133 22.7664 13.9198 22.7664C14.0417 22.7664 14.1636 22.7061 14.1636 22.5855C14.1636 22.4649 14.0417 22.3645 13.9198 22.3042C13.2085 21.9425 12.7411 21.4 12.7411 20.4757V20.4556C13.8588 20.2546 14.8952 19.3504 15.1187 17.8233C16.1347 17.4013 16.6631 16.6578 16.6631 15.6532C16.6631 14.2667 15.3016 13.262 13.8588 13.262ZM19.1625 21.9827C18.0652 21.9827 17.354 21.3598 17.354 20.4355C17.354 19.6719 17.8823 19.049 18.5123 19.049C18.7561 19.049 18.9796 19.1495 18.9796 19.3906C18.9796 19.5514 18.9187 19.6719 19.0812 19.6719C19.1828 19.6719 19.2641 19.5714 19.2641 19.3303C19.2641 19.0289 18.9796 18.7677 18.5732 18.7677H18.4716C18.5326 18.6471 18.5326 18.5266 18.5326 18.4864C18.5326 18.2051 18.3091 18.0443 18.0855 18.0443C17.862 18.0443 17.6385 18.1649 17.6385 18.3256C17.6385 18.3859 17.6791 18.4261 17.7401 18.4261C17.8417 18.4261 17.862 18.3256 18.0246 18.3256C18.1465 18.3256 18.2481 18.3859 18.2481 18.5467C18.2481 18.7677 18.0652 18.8481 17.9026 18.9485C17.3946 19.2299 17.0695 19.7724 17.0695 20.4355C17.0695 21.2995 17.5775 21.8621 18.2887 22.1033L17.8214 22.8065C17.1914 22.8065 16.8866 23.2687 16.3176 24.2533C16.2567 24.0122 16.0738 23.8313 15.7486 23.8313C15.4032 23.8313 15.1796 24.0724 15.1796 24.414C15.1796 24.5145 15.2406 24.5748 15.3016 24.5748C15.4032 24.5748 15.4641 24.5145 15.4641 24.414C15.4641 24.2533 15.5657 24.1126 15.7486 24.1126C15.9722 24.1126 16.0534 24.2734 16.0534 24.4542C16.0534 24.6753 16.0128 24.7958 15.8706 25.037C15.2203 26.0818 14.3059 26.6043 13.5337 26.6043C12.8428 26.6043 12.4363 26.2024 12.4363 25.8005C12.4363 25.4388 12.6599 25.1173 13.0256 25.1173C13.2695 25.1173 13.4321 25.2781 13.4321 25.479C13.4321 25.6599 13.2695 25.6599 13.2695 25.7603C13.2695 25.8206 13.3305 25.8608 13.3914 25.8608C13.5743 25.8608 13.6962 25.6398 13.6962 25.4388C13.6962 25.0972 13.4117 24.8561 13.0053 24.8561C12.6395 24.8561 12.3144 25.0972 12.2331 25.3584C12.1315 25.1173 11.8267 24.8561 11.4609 24.8561C11.0545 24.8561 10.77 25.0972 10.77 25.4388C10.77 25.6599 10.892 25.8608 11.0748 25.8608C11.1358 25.8608 11.1968 25.8206 11.1968 25.7603C11.1968 25.6599 11.0342 25.6599 11.0342 25.479C11.0342 25.258 11.1968 25.1173 11.4406 25.1173C11.8064 25.1173 12.0299 25.4187 12.0299 25.8005C12.0299 26.2024 11.6235 26.6043 10.9326 26.6043C10.1604 26.6043 9.24597 26.0818 8.5957 25.037C8.43314 24.7958 8.41282 24.6753 8.41282 24.4542C8.41282 24.2734 8.51442 24.1126 8.71763 24.1126C8.90052 24.1126 9.00212 24.2734 9.00212 24.414C9.00212 24.5145 9.06308 24.5748 9.16469 24.5748C9.22565 24.5748 9.28661 24.5145 9.28661 24.414C9.28661 24.0724 9.06308 23.8313 8.71763 23.8313C8.41282 23.8313 8.20961 24.0122 8.14865 24.2533C7.57966 23.2687 7.27485 22.8065 6.64491 22.8065L6.17753 22.1033C6.88876 21.8621 7.39678 21.2995 7.39678 20.4355C7.39678 19.7925 7.05132 19.2299 6.56362 18.9485C6.40106 18.8481 6.21817 18.7677 6.21817 18.5467C6.21817 18.3859 6.31977 18.3256 6.4417 18.3256C6.60426 18.3256 6.62458 18.4261 6.72619 18.4261C6.78715 18.4261 6.82779 18.3859 6.82779 18.3256C6.82779 18.1649 6.60426 18.0443 6.40106 18.0443C6.17753 18.0443 5.954 18.2051 5.954 18.4864C5.954 18.5266 5.954 18.6471 6.01496 18.7677H5.91336C5.50694 18.7677 5.22245 19.0088 5.22245 19.3303C5.22245 19.5714 5.32405 19.6719 5.40534 19.6719C5.5679 19.6719 5.50694 19.5514 5.50694 19.3906C5.50694 19.1495 5.73047 19.049 5.97432 19.049C6.60426 19.049 7.13261 19.6719 7.13261 20.4355C7.13261 21.3598 6.42138 21.9827 5.32405 21.9827C4.04384 21.9827 3.06844 21.0584 3.06844 19.7523C3.06844 18.4864 3.82031 17.6223 4.65347 16.8588L5.36469 16.1756C6.34009 15.3317 6.70587 14.4676 6.70587 13.4027C6.70587 12.2372 5.99464 10.9311 4.4909 10.2881C4.79571 10.1877 4.99892 9.88625 4.99892 9.52456C4.99892 9.28343 4.89732 9.12268 4.89732 8.94184C4.89732 8.58015 5.12085 8.35912 5.42566 8.35912C5.71015 8.35912 5.89304 8.58015 5.89304 8.78109C5.89304 8.96193 5.77111 9.12268 5.54758 9.12268C5.44598 9.12268 5.38502 9.12268 5.38502 9.22315C5.38502 9.32362 5.48662 9.34371 5.60854 9.34371C5.97432 9.34371 6.17753 9.04231 6.17753 8.88156C6.23849 8.92174 6.29945 8.94184 6.40106 8.94184C6.62459 8.94184 6.76683 8.78109 6.76683 8.58015C6.76683 8.51987 6.72619 8.4194 6.64491 8.4194C6.58394 8.4194 6.5433 8.47968 6.5433 8.53996C6.5433 8.64043 6.48234 8.70071 6.38074 8.70071C6.25881 8.70071 6.15721 8.60024 6.09624 8.47968C5.97432 8.25865 5.73047 8.07781 5.40534 8.07781C4.99892 8.07781 4.69411 8.35912 4.63315 8.72081C4.45026 8.53996 4.22673 8.35912 3.92192 8.15818C4.16577 7.99743 4.3893 7.87687 4.63315 7.69602C4.99892 7.41471 5.34437 7.11331 5.73047 6.71143L7.43742 4.8628C8.96148 3.21511 9.91656 2.81324 10.8716 2.81324C11.6845 2.81324 12.0909 3.21511 12.0909 3.67727C12.0909 4.01886 11.9486 4.25999 11.7048 4.40065C11.5625 4.25999 11.4813 4.07914 11.4406 3.87821C11.4 3.71746 11.3797 3.71746 11.339 3.71746C11.2781 3.71746 11.2781 3.77774 11.2781 3.83802C11.2781 4.09924 11.339 4.32027 11.4406 4.48102C11.4 4.48102 11.3797 4.48102 11.339 4.48102C11.0342 4.48102 10.831 4.32027 10.831 4.13943C10.831 4.09924 10.831 4.03896 10.892 3.97868C10.9529 3.91839 10.9326 3.87821 10.892 3.87821C10.77 3.87821 10.6481 4.03896 10.6481 4.2198C10.6481 4.44083 10.831 4.74224 11.3593 4.74224C11.4406 4.74224 11.5422 4.74224 11.6641 4.70205C11.847 4.84271 12.0502 4.90299 12.2738 4.90299C12.4973 4.90299 12.7005 4.84271 12.8834 4.70205C13.0053 4.74224 13.1069 4.74224 13.1882 4.74224C13.7165 4.74224 13.8994 4.44083 13.8994 4.2198C13.8994 4.03896 13.7775 3.87821 13.6556 3.87821C13.6149 3.87821 13.5946 3.91839 13.6556 3.97868C13.7165 4.03896 13.7165 4.09924 13.7165 4.13943C13.7165 4.32027 13.5337 4.48102 13.2085 4.48102C13.1679 4.48102 13.1272 4.48102 13.1069 4.48102C13.2085 4.32027 13.2695 4.09924 13.2695 3.83802C13.2695 3.77774 13.2695 3.71746 13.2085 3.71746C13.1679 3.71746 13.1476 3.71746 13.1069 3.87821C13.0663 4.09924 12.9647 4.28008 12.8428 4.40065C12.5989 4.28008 12.4567 4.01886 12.4567 3.67727C12.4567 3.21511 12.8631 2.81324 13.6759 2.81324C14.6107 2.81324 15.5861 3.21511 17.0695 4.84271L18.7764 6.69134C19.1219 7.09321 19.4877 7.39462 19.8738 7.67593C20.1176 7.85677 20.3411 7.97734 20.585 8.13809C20.2802 8.31893 20.0566 8.49977 19.8738 8.70071C19.8128 8.33902 19.508 8.05771 19.1016 8.05771C18.7968 8.05771 18.5326 8.23856 18.4107 8.45959C18.3497 8.58015 18.2481 8.68062 18.1262 8.68062C18.0246 8.68062 17.9636 8.62034 17.9636 8.51987C17.9636 8.45959 17.923 8.39931 17.862 8.39931C17.7604 8.39931 17.7401 8.49977 17.7401 8.56006C17.7401 8.78109 17.9026 8.92175 18.1058 8.92175C18.2074 8.92175 18.2684 8.88156 18.3294 8.86146C18.3294 9.02221 18.5123 9.32362 18.8984 9.32362C19.0203 9.32362 19.1219 9.28343 19.1219 9.20306C19.1219 9.12268 19.0609 9.10259 18.9593 9.10259C18.7358 9.10259 18.6139 8.98203 18.6139 8.76099C18.6139 8.53996 18.7968 8.33903 19.0812 8.33903C19.3861 8.33903 19.6096 8.56006 19.6096 8.92175C19.6096 9.10259 19.508 9.26334 19.508 9.50446C19.508 9.86615 19.6909 10.1877 20.016 10.268C18.5123 10.911 17.801 12.2171 17.801 13.3826C17.801 14.4676 18.1668 15.3317 19.0812 16.1555L19.7925 16.8387C20.6256 17.6023 21.3775 18.4663 21.3775 19.7322C21.4181 21.0584 20.4427 21.9827 19.1625 21.9827ZM12.2738 27.7094C12.0299 27.2071 11.7454 26.9057 11.6235 26.7449C11.9283 26.6244 12.1518 26.4033 12.2738 26.1622C12.3957 26.4033 12.6192 26.6244 12.924 26.7449C12.8021 26.9057 12.5176 27.2272 12.2738 27.7094ZM12.5786 4.5614C12.477 4.60158 12.3754 4.62168 12.2535 4.62168C12.1315 4.62168 12.0299 4.60158 11.9283 4.5614C12.0502 4.46093 12.1722 4.34036 12.2535 4.13943C12.3551 4.34036 12.4567 4.48102 12.5786 4.5614ZM21.9058 18.4261C21.7229 18.4261 21.5604 18.5266 21.4994 18.6471C21.2556 18.0845 20.9914 17.5621 19.9144 16.5775C19.9754 16.6177 20.1989 16.6378 20.3615 16.6378C20.7069 16.6378 21.0727 16.5373 21.2962 16.3363C21.3572 16.5574 21.5401 16.6779 21.7636 16.6779C22.109 16.6779 22.231 16.4569 22.231 16.2158C22.231 16.1153 22.1903 16.0349 22.109 16.0349C21.9262 16.0349 22.0684 16.3966 21.7636 16.3966C21.6417 16.3966 21.5401 16.2962 21.5401 16.1555C21.5401 15.9948 21.6417 15.8139 21.6417 15.5929C21.6417 15.0905 21.3369 14.769 20.9508 14.6686C20.7272 14.6083 20.6053 14.4475 20.6053 14.2667C20.6053 14.0256 20.7882 13.9854 20.9101 13.9854C21.032 13.9854 21.1336 14.0256 21.1336 13.9251C21.1336 13.8246 21.032 13.7643 20.8492 13.7643C20.6256 13.7643 20.3208 13.9251 20.3208 14.2667C20.3208 14.3873 20.3615 14.5078 20.4834 14.6284C20.1989 14.6887 19.955 14.9097 19.955 15.2513C19.955 15.4723 20.016 15.6933 20.1786 15.6933C20.3615 15.6933 20.2192 15.5326 20.2192 15.2915C20.2192 15.0102 20.4631 14.8896 20.7272 14.8896C21.0727 14.8896 21.3775 15.191 21.3775 15.5929C21.3775 16.055 21.0117 16.3564 20.4021 16.3564C20.0566 16.3564 19.5689 16.2962 19.1625 15.834C18.5123 15.1307 18.1262 14.5078 18.1262 13.4027C18.1262 11.976 19.1625 10.7503 20.6459 10.3484C20.9508 10.2479 21.2149 9.98671 21.2149 9.60493C21.2149 9.30353 21.032 9.04231 20.7069 9.04231C20.585 9.04231 20.4834 9.08249 20.4834 9.16287C20.4834 9.24324 20.585 9.26334 20.6459 9.26334C20.7679 9.26334 20.9304 9.3839 20.9304 9.60493C20.9304 9.90634 20.6866 10.1073 20.4021 10.1073C20.0566 10.1073 19.8331 9.86615 19.8331 9.52456C19.8331 8.88156 20.6053 8.43949 21.2149 8.15818C20.6866 7.91706 20.5037 7.81659 20.0973 7.51518C19.9957 7.41471 19.9754 7.33434 19.9754 7.21377C19.9754 7.05302 20.077 6.93246 20.1989 6.93246C20.3005 6.93246 20.3615 6.99274 20.3615 7.09321C20.3615 7.19368 20.3005 7.19368 20.3005 7.25396C20.3005 7.31424 20.3411 7.35443 20.4021 7.35443C20.4631 7.35443 20.6256 7.29415 20.6256 7.05302C20.6256 6.87218 20.5037 6.69134 20.2192 6.69134C19.9347 6.69134 19.7112 6.91237 19.7112 7.21377C19.4877 7.03293 19.2438 6.8119 19.0203 6.57077L17.9839 5.42543C17.6994 5.12402 17.862 4.52121 18.2684 4.52121C18.4919 4.52121 18.5732 4.68196 18.5732 4.80252C18.5732 5.08383 18.2887 4.96327 18.2887 5.10393C18.2887 5.16421 18.3294 5.22449 18.4107 5.22449C18.6342 5.22449 18.8577 5.06374 18.8577 4.76233C18.8577 4.48102 18.6139 4.23989 18.2684 4.23989C17.862 4.23989 17.5775 4.5413 17.5775 4.98336L17.2727 4.64177C15.8909 3.15483 14.7732 2.51183 13.6759 2.51183C13.2695 2.51183 12.9037 2.63239 12.6802 2.79314C12.4973 2.57211 12.3957 2.43146 12.2738 2.23052C12.1518 2.41136 12.0502 2.57211 11.8674 2.79314C11.6438 2.63239 11.2781 2.51183 10.8716 2.51183C9.77431 2.51183 8.65667 3.15483 7.27485 4.64177L6.97004 4.98336C6.97004 4.5614 6.68555 4.23989 6.27913 4.23989C5.93368 4.23989 5.68983 4.48102 5.68983 4.76233C5.68983 5.06374 5.91336 5.22449 6.13689 5.22449C6.23849 5.22449 6.25881 5.16421 6.25881 5.10393C6.25881 4.94318 5.97432 5.06374 5.97432 4.80252C5.97432 4.68196 6.07592 4.52121 6.27913 4.52121C6.68555 4.52121 6.84811 5.10393 6.56362 5.42543L5.5679 6.51049C5.34437 6.75162 5.10052 6.97265 4.877 7.15349C4.877 6.85209 4.65347 6.63105 4.36897 6.63105C4.08448 6.63105 3.96256 6.8119 3.96256 6.99274C3.96256 7.23387 4.12513 7.29415 4.18609 7.29415C4.24705 7.29415 4.28769 7.25396 4.28769 7.19368C4.28769 7.1334 4.22673 7.1334 4.22673 7.03293C4.22673 6.93246 4.28769 6.87218 4.3893 6.87218C4.51122 6.87218 4.61282 6.99274 4.61282 7.15349C4.61282 7.27406 4.57218 7.37452 4.4909 7.4549C4.12513 7.81659 3.9016 7.85677 3.37326 8.0979C3.96256 8.37921 4.75507 8.80118 4.75507 9.46428C4.75507 9.80587 4.53154 10.047 4.18609 10.047C3.9016 10.047 3.65775 9.86615 3.65775 9.54465C3.65775 9.32362 3.82031 9.20306 3.94224 9.20306C4.0032 9.20306 4.1048 9.20306 4.1048 9.10259C4.1048 9.00212 3.96256 9.04231 3.84063 9.04231C3.53582 9.04231 3.33261 9.28343 3.33261 9.60493C3.33261 9.96662 3.57646 10.2479 3.9016 10.3484C5.40534 10.7905 6.42138 11.976 6.42138 13.4027C6.42138 14.5078 6.01496 15.0905 5.38502 15.834C4.9786 16.2962 4.47058 16.3564 4.14545 16.3564C3.55614 16.3564 3.17005 16.055 3.17005 15.5929C3.17005 15.191 3.47486 14.8896 3.82031 14.8896C4.06416 14.8896 4.32833 15.0102 4.32833 15.2915C4.32833 15.5326 4.16577 15.6933 4.36897 15.6933C4.53154 15.6933 4.5925 15.4723 4.5925 15.2513C4.5925 14.9097 4.34865 14.6887 4.06416 14.6284C4.18609 14.5078 4.22673 14.3873 4.22673 14.2667C4.22673 13.9251 3.92192 13.7643 3.69839 13.7643C3.5155 13.7643 3.4139 13.8246 3.4139 13.9251C3.4139 14.0256 3.5155 13.9854 3.63743 13.9854C3.75935 13.9854 3.94224 14.0256 3.94224 14.2667C3.94224 14.4475 3.82031 14.6083 3.59678 14.6686C3.23101 14.769 2.90588 15.0905 2.90588 15.5929C2.90588 15.8139 3.00748 15.9948 3.00748 16.1555C3.00748 16.3163 2.90588 16.3966 2.78395 16.3966C2.47914 16.3966 2.62138 16.0349 2.4385 16.0349C2.33689 16.0349 2.31657 16.1354 2.31657 16.2158C2.31657 16.4569 2.4385 16.6779 2.78395 16.6779C3.00748 16.6779 3.19037 16.5574 3.25133 16.3363C3.47486 16.5574 3.84063 16.6378 4.18609 16.6378C4.34865 16.6378 4.55186 16.5976 4.63315 16.5775C3.53582 17.5621 3.29197 18.0845 3.04812 18.6471C2.98716 18.5266 2.82459 18.4261 2.64171 18.4261C2.33689 18.4261 2.17433 18.6069 2.17433 18.8883C2.17433 18.9485 2.17433 19.1294 2.33689 19.1294C2.45882 19.1294 2.39786 19.0088 2.39786 18.9083C2.39786 18.7878 2.49946 18.6873 2.64171 18.6873C2.88556 18.6873 2.94652 18.9083 2.88556 19.2499C2.84491 19.4107 2.84491 19.5915 2.84491 19.7523C2.84491 21.199 3.94224 22.2439 5.36469 22.2439C5.58822 22.2439 5.77111 22.2037 5.99464 22.1836L6.4417 22.8266C6.13689 22.9271 5.91336 23.1883 5.91336 23.5098C5.91336 23.9117 6.21817 24.2131 6.62458 24.2131C6.86843 24.2131 7.07164 24.0925 7.07164 23.972C7.07164 23.8715 7.01068 23.8514 6.94972 23.8514C6.84811 23.8514 6.84811 23.9519 6.64491 23.9519C6.40106 23.9519 6.19785 23.771 6.19785 23.5299C6.19785 23.2888 6.42138 23.1079 6.72619 23.1079C7.31549 23.1079 7.59998 23.7911 8.0064 24.4743L8.41282 25.1575C9.06308 26.2627 10.1198 26.9258 10.9936 26.9258C11.1155 26.9258 11.2374 26.9258 11.3593 26.8856C11.7251 27.2473 12.1112 27.9305 12.2738 28.252C12.4363 27.9505 12.8021 27.2674 13.1882 26.8856C13.3101 26.9258 13.4321 26.9258 13.554 26.9258C14.4278 26.9258 15.4845 26.2828 16.1347 25.1575L16.5411 24.4743C16.9476 23.7911 17.232 23.1079 17.8214 23.1079C18.1262 23.1079 18.3497 23.2888 18.3497 23.5299C18.3497 23.771 18.1668 23.9519 17.9026 23.9519C17.6791 23.9519 17.6791 23.8514 17.5978 23.8514C17.5369 23.8514 17.4759 23.8916 17.4759 23.972C17.4759 24.0925 17.6588 24.2131 17.9026 24.2131C18.3091 24.2131 18.6139 23.9117 18.6139 23.5098C18.6139 23.2084 18.3903 22.9271 18.0855 22.8266L18.5326 22.1836C18.7561 22.2238 18.939 22.2439 19.1625 22.2439C20.6053 22.2439 21.6823 21.199 21.6823 19.7523C21.6823 19.5915 21.6823 19.4107 21.6417 19.2499C21.5807 18.9083 21.6417 18.6873 21.8855 18.6873C22.0481 18.6873 22.1294 18.7878 22.1294 18.9083C22.1294 19.0088 22.0684 19.1294 22.1903 19.1294C22.3529 19.1294 22.3529 18.9485 22.3529 18.8883C22.3732 18.6069 22.231 18.4261 21.9058 18.4261ZM21.093 23.7309C19.7112 25.1173 17.6994 26.1019 15.7486 27.0262C14.4684 27.6491 13.2288 28.252 12.2535 28.9954C11.2781 28.252 10.0385 27.629 8.75827 27.0262C6.82779 26.1019 4.79571 25.1173 3.4139 23.7309C1.66631 21.9626 0.833153 20.1743 0.833153 18.1448C0.833153 16.4167 1.52406 14.97 3.08876 13.0209C3.21069 12.8601 3.33261 12.7195 3.33261 12.5989C3.33261 12.4783 3.21069 12.2372 3.14973 12.0966L2.0524 9.74559C1.80855 9.22315 1.54438 8.72081 1.54438 8.19837C1.54438 7.7764 1.82887 7.4549 2.19465 7.15349L3.75935 5.76702C3.82031 5.70674 3.82031 5.60627 3.79999 5.54599L3.29197 4.52121C3.25133 4.42074 3.25133 4.32027 3.33261 4.25999C4.85667 3.23521 6.13689 2.9338 7.98608 2.43146C9.73367 1.9693 11.2984 1.56742 12.2535 0.944516C13.2288 1.56742 14.7732 1.9693 16.5208 2.43146C18.37 2.9338 19.6096 3.29549 21.1743 4.25999C21.2759 4.32027 21.2759 4.42074 21.2149 4.5413L20.7069 5.56608C20.6663 5.62637 20.6663 5.72683 20.7476 5.78712L22.3123 7.17359C22.678 7.47499 22.9625 7.79649 22.9625 8.21846C22.9625 8.7409 22.7187 9.24324 22.4545 9.76568L21.3572 12.1167C21.2962 12.2372 21.1743 12.4783 21.1743 12.619C21.1743 12.7597 21.2962 12.9003 21.4181 13.041C23.1048 14.8896 23.6737 16.4368 23.6737 18.1649C23.6941 20.1944 22.8406 21.9827 21.093 23.7309ZM22.5561 13.1213C22.2716 12.7797 22.109 12.619 22.109 12.4984C22.109 12.3779 22.2106 12.197 22.2919 11.976L23.2267 9.94653C23.5112 9.32362 23.755 8.80118 23.755 8.15818C23.755 7.69602 23.5721 7.23387 23.1048 6.83199L21.7636 5.68665C21.6417 5.58618 21.6417 5.44552 21.7026 5.32496L22.2106 4.2198C22.2513 4.15952 22.2513 4.05905 22.1497 3.99877C20.6256 2.97399 18.878 2.37117 17.2117 1.90902C15.5657 1.46695 13.3508 0.864141 12.2535 0.0202026C11.1764 0.823954 8.96148 1.42677 7.29517 1.88892C5.64919 2.35108 3.9016 2.97399 2.35721 3.97868C2.25561 4.03896 2.25561 4.13943 2.29625 4.19971L2.80427 5.30486C2.86523 5.42543 2.86523 5.58618 2.74331 5.66655L1.40214 6.8119C0.934757 7.21377 0.75187 7.67593 0.75187 8.13809C0.75187 8.78109 0.99572 9.30353 1.28021 9.92643L2.21497 11.9559C2.31657 12.1769 2.39786 12.3578 2.39786 12.4783C2.39786 12.5989 2.23529 12.7597 1.97112 13.1012C0.568983 14.8494 0 16.256 0 18.1448C0 20.7771 1.32085 22.7664 2.80427 24.2935C4.32833 25.8407 6.46202 26.8454 8.3925 27.7898C9.67271 28.4127 11.0139 29.0155 12.2535 30.0202C13.493 29.0356 14.8342 28.4127 16.1144 27.7898C18.0449 26.8655 20.1989 25.8407 21.7026 24.2935C23.2064 22.7864 24.5069 20.7771 24.5069 18.1448C24.5272 16.256 23.9786 14.8494 22.5561 13.1213Z" fill="white"/>
</g>
<defs>
<clipPath id="clip0_157_12741">
<rect width="100.161" height="30" fill="white"/>
</clipPath>
</defs>
</svg>
