<svg width="214" height="35" viewBox="0 0 214 35" fill="none" xmlns="http://www.w3.org/2000/svg">
<path d="M2.228 3.456V14.22H15.656V15.876H2.228V27H0.392V1.8H17.24V3.456H2.228ZM28.0192 8.064C30.3472 8.064 32.1352 8.664 33.3832 9.864C34.6312 11.04 35.2552 12.78 35.2552 15.084V27H33.5272V23.652C32.9272 24.756 32.0512 25.62 30.8992 26.244C29.7472 26.844 28.3672 27.144 26.7592 27.144C24.6712 27.144 23.0152 26.652 21.7912 25.668C20.5912 24.684 19.9912 23.388 19.9912 21.78C19.9912 20.22 20.5432 18.96 21.6472 18C22.7752 17.016 24.5632 16.524 27.0112 16.524H33.4552V15.012C33.4552 13.26 32.9752 11.928 32.0152 11.016C31.0792 10.104 29.6992 9.648 27.8752 9.648C26.6272 9.648 25.4272 9.864 24.2752 10.296C23.1472 10.728 22.1872 11.304 21.3952 12.024L20.4952 10.728C21.4312 9.888 22.5592 9.24 23.8792 8.784C25.1992 8.304 26.5792 8.064 28.0192 8.064ZM27.0112 25.668C28.5712 25.668 29.8912 25.308 30.9712 24.588C32.0752 23.868 32.9032 22.824 33.4552 21.456V17.928H27.0472C25.1992 17.928 23.8552 18.264 23.0152 18.936C22.1992 19.608 21.7912 20.532 21.7912 21.708C21.7912 22.932 22.2472 23.904 23.1592 24.624C24.0712 25.32 25.3552 25.668 27.0112 25.668ZM66.0715 8.064C68.3995 8.064 70.2235 8.748 71.5435 10.116C72.8875 11.484 73.5595 13.452 73.5595 16.02V27H71.7595V16.164C71.7595 14.052 71.2435 12.444 70.2115 11.34C69.1795 10.236 67.7395 9.684 65.8915 9.684C63.7795 9.684 62.0995 10.344 60.8515 11.664C59.6275 12.984 59.0155 14.76 59.0155 16.992V27H57.2155V16.164C57.2155 14.052 56.6995 12.444 55.6675 11.34C54.6355 10.236 53.1955 9.684 51.3475 9.684C49.2355 9.684 47.5555 10.344 46.3075 11.664C45.0835 12.984 44.4715 14.76 44.4715 16.992V27H42.6715V8.208H44.3995V12.24C45.0235 10.92 45.9475 9.9 47.1715 9.18C48.4195 8.436 49.8955 8.064 51.5995 8.064C53.3035 8.064 54.7435 8.448 55.9195 9.216C57.1195 9.984 57.9715 11.112 58.4755 12.6C59.0995 11.208 60.0715 10.104 61.3915 9.288C62.7355 8.472 64.2955 8.064 66.0715 8.064ZM80.9918 8.208H82.7918V27H80.9918V8.208ZM81.8918 3.636C81.4838 3.636 81.1358 3.504 80.8478 3.24C80.5598 2.952 80.4158 2.604 80.4158 2.196C80.4158 1.788 80.5598 1.44 80.8478 1.152C81.1358 0.863999 81.4838 0.719999 81.8918 0.719999C82.2998 0.719999 82.6478 0.863999 82.9358 1.152C83.2238 1.416 83.3678 1.752 83.3678 2.16C83.3678 2.568 83.2238 2.916 82.9358 3.204C82.6478 3.492 82.2998 3.636 81.8918 3.636ZM90.3785 0.287998H92.1785V27H90.3785V0.287998ZM114.849 8.208L105.201 29.556C104.481 31.212 103.641 32.388 102.681 33.084C101.745 33.78 100.629 34.128 99.3332 34.128C98.4692 34.128 97.6532 33.984 96.8852 33.696C96.1412 33.408 95.5052 32.988 94.9772 32.436L95.8772 31.068C96.8372 32.052 98.0012 32.544 99.3692 32.544C100.281 32.544 101.061 32.292 101.709 31.788C102.357 31.284 102.957 30.42 103.509 29.196L104.517 26.928L96.0572 8.208H97.9652L105.489 25.02L113.013 8.208H114.849Z" fill="#7E7E9D"/>
<path d="M137.643 20.268H123.603L120.579 27H117.807L129.327 1.8H131.955L143.475 27H140.667L137.643 20.268ZM136.671 18.108L130.623 4.572L124.575 18.108H136.671ZM152.004 27.18C150.468 27.18 148.992 26.964 147.576 26.532C146.184 26.076 145.092 25.512 144.3 24.84L145.452 22.824C146.244 23.448 147.24 23.964 148.44 24.372C149.64 24.756 150.888 24.948 152.184 24.948C153.912 24.948 155.184 24.684 156 24.156C156.84 23.604 157.26 22.836 157.26 21.852C157.26 21.156 157.032 20.616 156.576 20.232C156.12 19.824 155.544 19.524 154.848 19.332C154.152 19.116 153.228 18.912 152.076 18.72C150.54 18.432 149.304 18.144 148.368 17.856C147.432 17.544 146.628 17.028 145.956 16.308C145.308 15.588 144.984 14.592 144.984 13.32C144.984 11.736 145.644 10.44 146.964 9.432C148.284 8.424 150.12 7.92 152.472 7.92C153.696 7.92 154.92 8.088 156.144 8.424C157.368 8.736 158.376 9.156 159.168 9.684L158.052 11.736C156.492 10.656 154.632 10.116 152.472 10.116C150.84 10.116 149.604 10.404 148.764 10.98C147.948 11.556 147.54 12.312 147.54 13.248C147.54 13.968 147.768 14.544 148.224 14.976C148.704 15.408 149.292 15.732 149.988 15.948C150.684 16.14 151.644 16.344 152.868 16.56C154.38 16.848 155.592 17.136 156.504 17.424C157.416 17.712 158.196 18.204 158.844 18.9C159.492 19.596 159.816 20.556 159.816 21.78C159.816 23.436 159.12 24.756 157.728 25.74C156.36 26.7 154.452 27.18 152.004 27.18ZM169.617 27.18C168.081 27.18 166.605 26.964 165.189 26.532C163.797 26.076 162.705 25.512 161.913 24.84L163.065 22.824C163.857 23.448 164.853 23.964 166.053 24.372C167.253 24.756 168.501 24.948 169.797 24.948C171.525 24.948 172.797 24.684 173.613 24.156C174.453 23.604 174.873 22.836 174.873 21.852C174.873 21.156 174.645 20.616 174.189 20.232C173.733 19.824 173.157 19.524 172.461 19.332C171.765 19.116 170.841 18.912 169.689 18.72C168.153 18.432 166.917 18.144 165.981 17.856C165.045 17.544 164.241 17.028 163.569 16.308C162.921 15.588 162.597 14.592 162.597 13.32C162.597 11.736 163.257 10.44 164.577 9.432C165.897 8.424 167.733 7.92 170.085 7.92C171.309 7.92 172.533 8.088 173.757 8.424C174.981 8.736 175.989 9.156 176.781 9.684L175.665 11.736C174.105 10.656 172.245 10.116 170.085 10.116C168.453 10.116 167.217 10.404 166.377 10.98C165.561 11.556 165.153 12.312 165.153 13.248C165.153 13.968 165.381 14.544 165.837 14.976C166.317 15.408 166.905 15.732 167.601 15.948C168.297 16.14 169.257 16.344 170.481 16.56C171.993 16.848 173.205 17.136 174.117 17.424C175.029 17.712 175.809 18.204 176.457 18.9C177.105 19.596 177.429 20.556 177.429 21.78C177.429 23.436 176.733 24.756 175.341 25.74C173.973 26.7 172.065 27.18 169.617 27.18ZM198.642 18.324H182.802C182.946 20.292 183.702 21.888 185.07 23.112C186.438 24.312 188.166 24.912 190.254 24.912C191.43 24.912 192.51 24.708 193.494 24.3C194.478 23.868 195.33 23.244 196.05 22.428L197.49 24.084C196.65 25.092 195.594 25.86 194.322 26.388C193.074 26.916 191.694 27.18 190.182 27.18C188.238 27.18 186.51 26.772 184.998 25.956C183.51 25.116 182.346 23.964 181.506 22.5C180.666 21.036 180.246 19.38 180.246 17.532C180.246 15.684 180.642 14.028 181.434 12.564C182.25 11.1 183.354 9.96 184.746 9.144C186.162 8.328 187.746 7.92 189.498 7.92C191.25 7.92 192.822 8.328 194.214 9.144C195.606 9.96 196.698 11.1 197.49 12.564C198.282 14.004 198.678 15.66 198.678 17.532L198.642 18.324ZM189.498 10.116C187.674 10.116 186.138 10.704 184.89 11.88C183.666 13.032 182.97 14.544 182.802 16.416H196.23C196.062 14.544 195.354 13.032 194.106 11.88C192.882 10.704 191.346 10.116 189.498 10.116ZM213.853 25.848C213.373 26.28 212.773 26.616 212.053 26.856C211.357 27.072 210.625 27.18 209.857 27.18C208.081 27.18 206.713 26.7 205.753 25.74C204.793 24.78 204.313 23.424 204.313 21.672V10.224H200.929V8.064H204.313V3.924H206.869V8.064H212.629V10.224H206.869V21.528C206.869 22.656 207.145 23.52 207.697 24.12C208.273 24.696 209.089 24.984 210.145 24.984C210.673 24.984 211.177 24.9 211.657 24.732C212.161 24.564 212.593 24.324 212.953 24.012L213.853 25.848Z" fill="#00003C"/>
</svg>
