<svg aria-hidden='true' style='position: absolute; width: 0; height: 0; overflow: hidden;' version='1.1' xmlns='http://www.w3.org/2000/svg' xmlns:xlink='http://www.w3.org/1999/xlink'>
    <defs>
        <symbol id="analytics" viewBox="0 0 18 18">     
            <path fill-rule="evenodd" clip-rule="evenodd" d="M16.3125 15.5C16.761 15.5 17.125 15.864 17.125 16.3125C17.125 16.761 16.761 17.125 16.3125 17.125H1.6875C1.239 17.125 0.875 16.761 0.875 16.3125C0.875 15.864 1.239 15.5 1.6875 15.5H16.3125ZM16.3125 0.875C16.761 0.875 17.125 1.239 17.125 1.6875V13.0625C17.125 13.511 16.761 13.875 16.3125 13.875H1.6875C1.239 13.875 0.875 13.511 0.875 13.0625V8.1875C0.875 7.739 1.239 7.375 1.6875 7.375H5.75V4.9375C5.75 4.489 6.114 4.125 6.5625 4.125H10.625V1.6875C10.625 1.239 10.989 0.875 11.4375 0.875H16.3125ZM12.2497 12.25H15.4997V2.50004H12.2497V12.25ZM7.37513 12.2499H10.6251V5.74994H7.37513V12.2499ZM2.49987 12.25H5.74987V9H2.49987V12.25Z"/>
        </symbol>
        <symbol id="bank" viewBox="0 0 26 26">     
            <path fill-rule="evenodd" clip-rule="evenodd" d="M24.7009 23.3999V11.6995C25.4185 11.6995 26.001 11.1183 26.001 10.3994C26.001 9.68049 25.4185 9.09937 24.7009 9.09937H1.30005C0.582421 9.09937 0 9.68049 0 10.3994C0 11.1183 0.582421 11.6995 1.30005 11.6995V23.3999C0.582421 23.3999 0 23.981 0 24.6999C0 25.4189 0.582421 26 1.30005 26H24.7009C25.4185 26 26.001 25.4189 26.001 24.6999C26.001 23.981 25.4185 23.3999 24.7009 23.3999ZM4.41219 6.39396C3.75177 6.68127 2.98734 6.37186 2.70523 5.71143C2.42182 5.05231 2.72863 4.28788 3.38776 4.00447L12.4881 0.104329C12.8157 -0.0347763 13.1849 -0.0347763 13.5125 0.104329L22.6129 4.00447C23.272 4.28788 23.5788 5.05231 23.2954 5.71143C23.0848 6.20415 22.6051 6.49926 22.0993 6.49926C21.929 6.49926 21.7548 6.46676 21.5884 6.39396L13.0003 2.71352L4.41219 6.39396ZM3.90039 23.3999H22.1011V11.6995H3.90039V23.3999ZM13.0002 14.2996C12.2826 14.2996 11.7002 14.8807 11.7002 15.5996V19.4998C11.7002 20.2187 12.2826 20.7998 13.0002 20.7998C13.7179 20.7998 14.3003 20.2187 14.3003 19.4998V15.5996C14.3003 14.8807 13.7179 14.2996 13.0002 14.2996ZM18.2014 14.2996C17.4838 14.2996 16.9014 14.8807 16.9014 15.5996V19.4998C16.9014 20.2187 17.4838 20.7998 18.2014 20.7998C18.919 20.7998 19.5015 20.2187 19.5015 19.4998V15.5996C19.5015 14.8807 18.919 14.2996 18.2014 14.2996ZM7.80005 14.2996C7.08242 14.2996 6.5 14.8807 6.5 15.5996V19.4998C6.5 20.2187 7.08242 20.7998 7.80005 20.7998C8.51767 20.7998 9.10009 20.2187 9.10009 19.4998V15.5996C9.10009 14.8807 8.51767 14.2996 7.80005 14.2996Z"/>
        </symbol>
        <symbol id='calendar' viewBox="0 0 20 20">
            <path fill-rule="evenodd" clip-rule="evenodd" d="M19 2L16 2V1C16 0.447 15.553 0 15 0C14.447 0 14 0.447 14 1V2L6 2V1C6 0.447 5.553 0 5 0C4.447 0 4 0.447 4 1L4 2L1 2C0.447 2 0 2.447 0 3L0 19C0 19.553 0.447 20 1 20L19 20C19.553 20 20 19.553 20 19L20 3C20 2.447 19.553 2 19 2ZM2 18L18 18L18 8L2 8L2 18ZM2 6L18 6V4L2 4L2 6ZM6 10C5.447 10 5 10.447 5 11C5 11.553 5.447 12 6 12C6.553 12 7 11.553 7 11C7 10.447 6.553 10 6 10ZM6 14C5.447 14 5 14.447 5 15C5 15.553 5.447 16 6 16C6.553 16 7 15.553 7 15C7 14.447 6.553 14 6 14ZM10 14C9.447 14 9 14.447 9 15C9 15.553 9.447 16 10 16C10.553 16 11 15.553 11 15C11 14.447 10.553 14 10 14ZM10 10C9.447 10 9 10.447 9 11C9 11.553 9.447 12 10 12C10.553 12 11 11.553 11 11C11 10.447 10.553 10 10 10ZM14 10C13.447 10 13 10.447 13 11C13 11.553 13.447 12 14 12C14.553 12 15 11.553 15 11C15 10.447 14.553 10 14 10Z" />
        </symbol>
        <symbol id='cancel' viewBox='0 0 20 20'>
            <path fill-rule='evenodd' clip-rule='evenodd' d='M11.7674 10L19.6334 2.134C20.1222 1.64526 20.1222 0.855286 19.6334 0.366551C19.1447 -0.122184 18.3547 -0.122184 17.866 0.366551L10 8.23256L2.134 0.366551C1.64526 -0.122184 0.855286 -0.122184 0.366551 0.366551C-0.122184 0.855286 -0.122184 1.64526 0.366551 2.134L8.23256 10L0.366551 17.866C-0.122184 18.3547 -0.122184 19.1447 0.366551 19.6334C0.610293 19.8772 0.930283 19.9997 1.25027 19.9997C1.57026 19.9997 1.89025 19.8772 2.134 19.6334L10 11.7674L17.866 19.6334C18.1097 19.8772 18.4297 19.9997 18.7497 19.9997C19.0697 19.9997 19.3897 19.8772 19.6334 19.6334C20.1222 19.1447 20.1222 18.3547 19.6334 17.866L11.7674 10Z' />
        </symbol>
        <symbol id="cash-dollar" viewBox="0 0 30 30">     
            <path fill-rule="evenodd" clip-rule="evenodd" d="M15 0C6.729 0 0 6.729 0 15C0 23.271 6.729 30 15 30C23.271 30 30 23.271 30 15C30 6.729 23.271 0 15 0ZM15.0004 27C8.3839 27 3.0004 21.6165 3.0004 15C3.0004 8.38353 8.3839 3.00003 15.0004 3.00003C21.6169 3.00003 27.0004 8.38353 27.0004 15C27.0004 21.6165 21.6169 27 15.0004 27ZM14.9659 10.4993C15.0049 10.5008 15.9394 10.5593 16.9399 11.5613C17.5264 12.1463 18.4759 12.1463 19.0609 11.5613C19.6474 10.9748 19.6474 10.0253 19.0609 9.43879C18.1564 8.53429 17.2399 8.05729 16.5004 7.80079V7.49929C16.5004 6.67129 15.8299 5.99929 15.0004 5.99929C14.1724 5.99929 13.5004 6.67129 13.5004 7.49929V7.77679C11.7589 8.39779 10.5004 10.0478 10.5004 11.9993C10.5004 15.4208 13.0909 16.0688 14.6374 16.4558C16.3099 16.8743 16.5004 17.0318 16.5004 17.9993C16.5004 18.8273 15.8284 19.4993 15.0364 19.5008C14.9974 19.4993 14.0614 19.4408 13.0609 18.4388C12.4759 17.8538 11.5264 17.8538 10.9399 18.4388C10.3549 19.0253 10.3549 19.9748 10.9399 20.5613C11.8459 21.4658 12.7624 21.9428 13.5004 22.1993V22.4993C13.5004 23.3288 14.1724 23.9993 15.0004 23.9993C15.8299 23.9993 16.5004 23.3288 16.5004 22.4993V22.2233C18.2434 21.6023 19.5004 19.9523 19.5004 17.9993C19.5004 14.5793 16.9114 13.9313 15.3649 13.5443C13.6924 13.1258 13.5004 12.9683 13.5004 11.9993C13.5004 11.1728 14.1739 10.4993 14.9659 10.4993Z"/>
        </symbol>      
        <symbol id="chevron-down" viewBox="0 0 20.001 9.9994">     
            <path clip-rule="evenodd" fill-rule="evenodd" d="m0 0.99969c0 0.275 0.113 0.55 0.336 0.747l9 8c0.379 0.337 0.949 0.337 1.328 0l9-8c0.414-0.366 0.452-0.998 0.083-1.411-0.366-0.41295-0.999-0.44995-1.411-0.083l-8.336 7.409-8.336-7.409c-0.412-0.36695-1.045-0.32995-1.411 0.083-0.17 0.19-0.253 0.428-0.253 0.664z"/>
        </symbol>
        <symbol id="chevron-left" viewBox="0 0 10 20">     
            <path fill-rule="evenodd" clip-rule="evenodd" d="M8.99975 20.001C8.72475 20.001 8.44975 19.888 8.25275 19.665L0.25275 10.665C-0.08425 10.286 -0.08425 9.716 0.25275 9.337L8.25275 0.337C8.61875 -0.077 9.25075 -0.115 9.66375 0.254C10.0767 0.62 10.1137 1.253 9.74675 1.665L2.33775 10.001L9.74675 18.337C10.1137 18.749 10.0767 19.382 9.66375 19.748C9.47375 19.918 9.23575 20.001 8.99975 20.001Z"/>
        </symbol>
        <symbol id="chevron-right" viewBox="0 0 10 20">     
            <path clip-rule="evenodd" fill-rule="evenodd" d="m0.99969 20.001c0.275 0 0.55-0.113 0.747-0.336l8-9c0.337-0.379 0.337-0.949 0-1.328l-8-9c-0.366-0.414-0.998-0.452-1.411-0.083-0.41295 0.366-0.44995 0.999-0.083 1.411l7.409 8.336-7.409 8.336c-0.36695 0.412-0.32995 1.045 0.083 1.411 0.19 0.17 0.428 0.253 0.664 0.253z"/>
        </symbol>
        <symbol id="chevron-up" viewBox="0 0 20.001 9.9994">     
            <path clip-rule="evenodd" fill-rule="evenodd" d="m0 8.9998c0-0.275 0.113-0.55 0.336-0.747l9-8c0.379-0.337 0.949-0.337 1.328 0l9 8c0.414 0.366 0.452 0.998 0.083 1.411-0.366 0.41295-0.999 0.44995-1.411 0.083l-8.336-7.409-8.336 7.409c-0.412 0.36695-1.045 0.32995-1.411-0.083-0.17-0.19-0.253-0.428-0.253-0.664z"/>
        </symbol>
        <symbol id="circle-cancel" viewBox="0 0 22 22">     
            <path fill-rule="evenodd" clip-rule="evenodd" d="M11 0C4.9346 0 0 4.9346 0 11C0 17.0654 4.9346 22 11 22C17.0654 22 22 17.0654 22 11C22 4.9346 17.0654 0 11 0ZM11.0002 19.8C6.1481 19.8 2.2002 15.8521 2.2002 11C2.2002 6.14787 6.1481 2.19997 11.0002 2.19997C15.8523 2.19997 19.8002 6.14787 19.8002 11C19.8002 15.8521 15.8523 19.8 11.0002 19.8ZM15.0776 6.92237C14.6475 6.49227 13.9523 6.49227 13.5222 6.92237L10.9999 9.44467L8.47758 6.92237C8.04748 6.49227 7.35228 6.49227 6.92218 6.92237C6.49208 7.35247 6.49208 8.04767 6.92218 8.47777L9.44448 11.0001L6.92218 13.5224C6.49208 13.9525 6.49208 14.6477 6.92218 15.0778C7.13668 15.2923 7.41828 15.4001 7.69988 15.4001C7.98148 15.4001 8.26308 15.2923 8.47758 15.0778L10.9999 12.5555L13.5222 15.0778C13.7367 15.2923 14.0183 15.4001 14.2999 15.4001C14.5815 15.4001 14.8631 15.2923 15.0776 15.0778C15.5077 14.6477 15.5077 13.9525 15.0776 13.5224L12.5553 11.0001L15.0776 8.47777C15.5077 8.04767 15.5077 7.35247 15.0776 6.92237Z"/>
        </symbol>
        <symbol id='circle-information' viewBox='0 0 15 14'>
            <path fill-rule='evenodd' clip-rule='evenodd' d='M7.34054 0C3.63975 0 0.628906 3.1402 0.628906 7C0.628906 10.8598 3.63975 14 7.34054 14C11.0413 14 14.0522 10.8598 14.0522 7C14.0522 3.1402 11.0413 0 7.34054 0ZM7.34084 12.5999C4.38034 12.5999 1.97153 10.0876 1.97153 6.99992C1.97153 3.91222 4.38034 1.39992 7.34084 1.39992C10.3013 1.39992 12.7101 3.91222 12.7101 6.99992C12.7101 10.0876 10.3013 12.5999 7.34084 12.5999ZM8.0114 9.10004V7.00004C8.0114 6.61294 7.71072 6.30004 7.34024 6.30004H6.66908C6.29859 6.30004 5.99791 6.61294 5.99791 7.00004C5.99791 7.38714 6.29859 7.70004 6.66908 7.70004V9.80004C6.66908 10.1871 6.96976 10.5 7.34024 10.5H8.0114C8.38188 10.5 8.68257 10.1871 8.68257 9.80004C8.68257 9.41294 8.38188 9.10004 8.0114 9.10004ZM7.3402 4.96982C7.74759 4.96982 8.07848 4.62542 8.07848 4.19982C8.07848 3.77492 7.74759 3.43052 7.3402 3.43052C6.9328 3.43052 6.60192 3.77492 6.60192 4.19982C6.60192 4.62542 6.9328 4.96982 7.3402 4.96982Z' />
        </symbol>
        <symbol id='circle-plus' viewBox='0 0 22 22'>
            <path fill-rule="evenodd" clip-rule="evenodd" d="M11 0C4.9346 0 0 4.9346 0 11C0 17.0654 4.9346 22 11 22C17.0654 22 22 17.0654 22 11C22 4.9346 17.0654 0 11 0ZM11.0001 19.8C6.148 19.8 2.2001 15.8521 2.2001 11C2.2001 6.14787 6.148 2.19997 11.0001 2.19997C15.8522 2.19997 19.8001 6.14787 19.8001 11C19.8001 15.8521 15.8522 19.8 11.0001 19.8ZM15.4 9.9H12.1V6.6C12.1 5.9917 11.6083 5.5 11 5.5C10.3917 5.5 9.9 5.9917 9.9 6.6V9.9H6.6C5.9917 9.9 5.5 10.3917 5.5 11C5.5 11.6083 5.9917 12.1 6.6 12.1H9.9V15.4C9.9 16.0083 10.3917 16.5 11 16.5C11.6083 16.5 12.1 16.0083 12.1 15.4V12.1H15.4C16.0083 12.1 16.5 11.6083 16.5 11C16.5 10.3917 16.0083 9.9 15.4 9.9Z" />
        </symbol>
        <symbol id="circle-tick" viewBox="0 0 22 22">     
            <path fill-rule="evenodd" clip-rule="evenodd" d="M11 0C4.9346 0 0 4.9346 0 11C0 17.0654 4.9346 22 11 22C17.0654 22 22 17.0654 22 11C22 4.9346 17.0654 0 11 0ZM11.0001 19.8C6.148 19.8 2.2001 15.8521 2.2001 11C2.2001 6.14787 6.148 2.19997 11.0001 2.19997C15.8522 2.19997 19.8001 6.14787 19.8001 11C19.8001 15.8521 15.8522 19.8 11.0001 19.8ZM13.5224 8.02229L9.90007 11.6446L8.47777 10.2223C8.04767 9.79219 7.35247 9.79219 6.92237 10.2223C6.49227 10.6524 6.49227 11.3476 6.92237 11.7777L9.12237 13.9777C9.33687 14.1922 9.61847 14.3 9.90007 14.3C10.1817 14.3 10.4633 14.1922 10.6778 13.9777L15.0778 9.57769C15.5079 9.14759 15.5079 8.45239 15.0778 8.02229C14.6477 7.59219 13.9525 7.59219 13.5224 8.02229Z"/>
        </symbol>
        <symbol id="customers" viewBox="0 0 14 18">     
            <path fill-rule="evenodd" clip-rule="evenodd" d="M13.6213 13.6682C13.8537 13.9006 13.9343 14.244 13.8303 14.5553L12.9631 17.1568C12.8452 17.5114 12.5139 17.7499 12.141 17.7499H1.73514C1.36139 17.7499 1.03014 17.5114 0.912206 17.1568L0.0450476 14.5553C-0.0590114 14.244 0.0225015 13.9006 0.2549 13.6682C0.371099 13.5511 3.15294 10.8126 6.93809 10.8126C10.7224 10.8126 13.5042 13.5511 13.6213 13.6682ZM11.5164 16.0157L12.0037 14.5528C11.2059 13.9007 9.26782 12.5471 6.93863 12.5471C4.5947 12.5471 2.66614 13.8981 1.87183 14.5502L2.36004 16.0157H11.5164ZM6.93775 2.14108C5.50347 2.14108 4.33627 3.30827 4.33627 4.74255C4.33627 6.17683 5.50347 7.34403 6.93775 7.34403C8.37203 7.34403 9.53922 6.17683 9.53922 4.74255C9.53922 3.30827 8.37203 2.14108 6.93775 2.14108ZM6.9375 9.07838C4.54675 9.07838 2.60171 7.13335 2.60171 4.74259C2.60171 2.35184 4.54675 0.406799 6.9375 0.406799C9.32826 0.406799 11.2733 2.35184 11.2733 4.74259C11.2733 7.13335 9.32826 9.07838 6.9375 9.07838Z"/>
        </symbol>
        <symbol id="customers-group" viewBox="0 0 31 20">     
            <path fill-rule="evenodd" clip-rule="evenodd" d="M22.3476 15.6123C22.5949 15.8596 22.6807 16.2251 22.57 16.5565L21.647 19.3253C21.5215 19.7028 21.1689 19.9566 20.7721 19.9566H9.69661C9.29881 19.9566 8.94625 19.7028 8.82072 19.3253L7.89777 16.5565C7.78701 16.2251 7.87377 15.8596 8.12112 15.6123C8.2448 15.4877 11.2056 12.573 15.2343 12.573C19.2621 12.573 22.223 15.4877 22.3476 15.6123ZM20.1072 18.111L20.6259 16.554C19.7767 15.8599 17.7139 14.4192 15.2349 14.4192C12.7401 14.4192 10.6875 15.8572 9.84204 16.5512L10.3617 18.111H20.1072ZM15.234 3.34351C13.7074 3.34351 12.4651 4.5858 12.4651 6.11237C12.4651 7.63894 13.7074 8.88124 15.234 8.88124C16.7605 8.88124 18.0028 7.63894 18.0028 6.11237C18.0028 4.5858 16.7605 3.34351 15.234 3.34351ZM15.2334 10.7274C12.6888 10.7274 10.6187 8.65717 10.6187 6.11258C10.6187 3.56799 12.6888 1.4978 15.2334 1.4978C17.778 1.4978 19.8482 3.56799 19.8482 6.11258C19.8482 8.65717 17.778 10.7274 15.2334 10.7274Z"/>
            <path fill-rule="evenodd" clip-rule="evenodd" d="M10.4488 10.1732C10.6271 10.3515 10.6889 10.6149 10.6091 10.8537L9.9439 12.8494C9.85343 13.1215 9.59931 13.3044 9.31327 13.3044H1.33069C1.04398 13.3044 0.789867 13.1215 0.699398 12.8494L0.0341824 10.8537C-0.0456434 10.6149 0.0168868 10.3515 0.195165 10.1732C0.284303 10.0834 2.41831 7.98267 5.32198 7.98267C8.22498 7.98267 10.359 10.0834 10.4488 10.1732ZM8.83358 11.9739L9.20744 10.8516C8.59544 10.3514 7.10868 9.31299 5.32191 9.31299C3.52383 9.31299 2.0444 10.3494 1.43506 10.8496L1.80957 11.9739H8.83358ZM5.32206 1.33057C4.2218 1.33057 3.32642 2.22595 3.32642 3.32621C3.32642 4.42648 4.2218 5.32186 5.32206 5.32186C6.42233 5.32186 7.31771 4.42648 7.31771 3.32621C7.31771 2.22595 6.42233 1.33057 5.32206 1.33057ZM5.32168 6.65215C3.48768 6.65215 1.99561 5.16008 1.99561 3.32608C1.99561 1.49208 3.48768 0 5.32168 0C7.15568 0 8.64776 1.49208 8.64776 3.32608C8.64776 5.16008 7.15568 6.65215 5.32168 6.65215Z"/>
            <path fill-rule="evenodd" clip-rule="evenodd" d="M30.4053 10.1732C30.5836 10.3515 30.6455 10.6149 30.5657 10.8537L29.9004 12.8494C29.81 13.1215 29.5559 13.3044 29.2698 13.3044H21.2872C21.0005 13.3044 20.7464 13.1215 20.6559 12.8494L19.9907 10.8537C19.9109 10.6149 19.9734 10.3515 20.1517 10.1732C20.2408 10.0834 22.3749 7.98267 25.2785 7.98267C28.1815 7.98267 30.3155 10.0834 30.4053 10.1732ZM28.7901 11.9739L29.164 10.8516C28.552 10.3514 27.0652 9.31299 25.2785 9.31299C23.4804 9.31299 22.0009 10.3494 21.3916 10.8496L21.7661 11.9739H28.7901ZM25.2784 1.33057C24.1781 1.33057 23.2827 2.22595 23.2827 3.32621C23.2827 4.42648 24.1781 5.32186 25.2784 5.32186C26.3786 5.32186 27.274 4.42648 27.274 3.32621C27.274 2.22595 26.3786 1.33057 25.2784 1.33057ZM25.2782 6.65215C23.4442 6.65215 21.9521 5.16008 21.9521 3.32608C21.9521 1.49208 23.4442 0 25.2782 0C27.1122 0 28.6043 1.49208 28.6043 3.32608C28.6043 5.16008 27.1122 6.65215 25.2782 6.65215Z"/>
        </symbol>
        <symbol id="data-visualization" viewBox="0 0 18 18">     
            <path fill-rule="evenodd" clip-rule="evenodd" d="M16.3125 0.875H1.6875C1.23819 0.875 0.875 1.23819 0.875 1.6875C0.875 2.13681 1.23819 2.5 1.6875 2.5V13.0625C1.6875 13.5118 2.05069 13.875 2.5 13.875H6.335L5.77437 16.1159C5.6655 16.5506 5.93038 16.9917 6.36587 17.1006C6.43169 17.1169 6.49831 17.125 6.56331 17.125C6.92731 17.125 7.258 16.8788 7.35063 16.5091L8.00875 13.875H9.99125L10.6494 16.5091C10.742 16.8788 11.0727 17.125 11.4367 17.125C11.5017 17.125 11.5683 17.1169 11.6341 17.1006C12.0696 16.9917 12.3345 16.5506 12.2256 16.1159L11.665 13.875H15.5C15.9493 13.875 16.3125 13.5118 16.3125 13.0625V2.5C16.7618 2.5 17.125 2.13681 17.125 1.6875C17.125 1.23819 16.7618 0.875 16.3125 0.875ZM3.31264 12.25H14.6876V2.50003H3.31264V12.25ZM5.75 10.625C6.19931 10.625 6.5625 10.2618 6.5625 9.81247V8.18747C6.5625 7.73815 6.19931 7.37497 5.75 7.37497C5.30069 7.37497 4.9375 7.73815 4.9375 8.18747V9.81247C4.9375 10.2618 5.30069 10.625 5.75 10.625ZM8.99972 10.625C9.44904 10.625 9.81222 10.2618 9.81222 9.81252V6.56252C9.81222 6.1132 9.44904 5.75002 8.99972 5.75002C8.55041 5.75002 8.18722 6.1132 8.18722 6.56252V9.81252C8.18722 10.2618 8.55041 10.625 8.99972 10.625ZM12.2501 10.625C12.6995 10.625 13.0626 10.2618 13.0626 9.81248V4.93748C13.0626 4.48817 12.6995 4.12498 12.2501 4.12498C11.8008 4.12498 11.4376 4.48817 11.4376 4.93748V9.81248C11.4376 10.2618 11.8008 10.625 12.2501 10.625Z"/>
        </symbol>
        <symbol id="delete" viewBox="0 0 16 22">     
            <path fill-rule="evenodd" clip-rule="evenodd" d="M15 4.10667H12V2.05333C12 0.92092 11.103 0 10 0H6C4.897 0 4 0.92092 4 2.05333V4.10667H1C0.447 4.10667 0 4.56661 0 5.13333C0 5.70005 0.447 6.16 1 6.16V20.9733C1 21.5401 1.447 22 2 22H14C14.553 22 15 21.5401 15 20.9733V6.16C15.553 6.16 16 5.70005 16 5.13333C16 4.56661 15.553 4.10667 15 4.10667ZM2.90918 19.8H13.091V5.86666H2.90918V19.8ZM6 4.10665H10V2.05332H6V4.10665ZM6 17.7467C6.553 17.7467 7 17.2867 7 16.72V8.35999C7 7.79327 6.553 7.33333 6 7.33333C5.447 7.33333 5 7.79327 5 8.35999V16.72C5 17.2867 5.447 17.7467 6 17.7467ZM10 17.7467C10.553 17.7467 11 17.2867 11 16.72V8.35999C11 7.79327 10.553 7.33333 10 7.33333C9.447 7.33333 9 7.79327 9 8.35999V16.72C9 17.2867 9.447 17.7467 10 17.7467Z"/>
        </symbol>        
        <symbol id="dollar-circular" viewBox="0 0 32 32">     
            <path fill-rule="evenodd" clip-rule="evenodd" d="M16 1C7.729 1 1 7.729 1 16C1 24.271 7.729 31 16 31C24.271 31 31 24.271 31 16C31 7.729 24.271 1 16 1M16.0004 28C9.3839 28 4.0004 22.6165 4.0004 16C4.0004 9.38353 9.3839 4.00003 16.0004 4.00003C22.6169 4.00003 28.0004 9.38353 28.0004 16C28.0004 22.6165 22.6169 28 16.0004 28M15.9659 11.4993C16.0049 11.5008 16.9394 11.5593 17.9399 12.5613C18.5264 13.1463 19.4759 13.1463 20.0609 12.5613C20.6474 11.9748 20.6474 11.0253 20.0609 10.4388C19.1564 9.53429 18.2399 9.05729 17.5004 8.80079V8.49929C17.5004 7.67129 16.8299 6.99929 16.0004 6.99929C15.1724 6.99929 14.5004 7.67129 14.5004 8.49929V8.77679C12.7589 9.39779 11.5004 11.0478 11.5004 12.9993C11.5004 16.4208 14.0909 17.0688 15.6374 17.4558C17.3099 17.8743 17.5004 18.0318 17.5004 18.9993C17.5004 19.8273 16.8284 20.4993 16.0364 20.5008C15.9974 20.4993 15.0614 20.4408 14.0609 19.4388C13.4759 18.8538 12.5264 18.8538 11.9399 19.4388C11.3549 20.0253 11.3549 20.9748 11.9399 21.5613C12.8459 22.4658 13.7624 22.9428 14.5004 23.1993V23.4993C14.5004 24.3288 15.1724 24.9993 16.0004 24.9993C16.8299 24.9993 17.5004 24.3288 17.5004 23.4993V23.2233C19.2434 22.6023 20.5004 20.9523 20.5004 18.9993C20.5004 15.5793 17.9114 14.9313 16.3649 14.5443C14.6924 14.1258 14.5004 13.9683 14.5004 12.9993C14.5004 12.1728 15.1739 11.4993 15.9659 11.4993"/>
        </symbol>
        <symbol id="duplicate" viewBox="0 0 12 12">     
            <path fill-rule="evenodd" clip-rule="evenodd" d="M4.5 7.5H10.5V1.5H4.5V7.5ZM7.5 10.5H1.5V4.5H3V8.25C3 8.664 3.33525 9 3.75 9H7.5V10.5ZM11.25 0H3.75C3.33525 0 3 0.336 3 0.75V3H0.75C0.33525 3 0 3.336 0 3.75V11.25C0 11.664 0.33525 12 0.75 12H8.25C8.66475 12 9 11.664 9 11.25V9H11.25C11.6648 9 12 8.664 12 8.25V0.75C12 0.336 11.6648 0 11.25 0Z"/>
        </symbol>
        <symbol id="edit" viewBox="0 0 20 20">     
            <path fill-rule="evenodd" clip-rule="evenodd" d="M18.8784 1.08654C17.4334 -0.362179 14.9114 -0.362179 13.4644 1.08654L2.29339 12.2785C2.18639 12.3857 2.11439 12.512 2.06639 12.6462C2.06339 12.6552 2.05439 12.6612 2.05139 12.6703L0.0513855 18.6815C-0.0686145 19.0412 0.0253855 19.4389 0.293385 19.7064C0.483385 19.8978 0.739386 20 1.00039 20C1.10639 20 1.21239 19.984 1.31639 19.9489L7.31639 17.9451C7.32539 17.9421 7.33139 17.9331 7.34039 17.9301C7.47439 17.882 7.60039 17.8099 7.70739 17.7027L18.8784 6.51071C19.6014 5.78635 20.0004 4.82254 20.0004 3.79862C20.0004 2.7737 19.6014 1.8109 18.8784 1.08654ZM17.4641 5.09403L17.0001 5.5589L14.4141 2.96804L14.8781 2.50317C15.5691 1.81087 16.7731 1.81087 17.4641 2.50317C17.8101 2.84982 18.0001 3.30968 18.0001 3.7986C18.0001 4.28751 17.8101 4.74738 17.4641 5.09403ZM3.43705 14.8413L5.14905 16.5565L2.58105 17.4141L3.43705 14.8413ZM7.00006 15.5777L4.41406 12.9868L13.0001 4.38469L15.5861 6.97554L7.00006 15.5777Z"/>
        </symbol>
         <symbol id="eye-off" viewBox="0 0 26 26">     
            <path fill-rule="evenodd" clip-rule="evenodd" d="M13 16.2499C14.7956 16.2499 16.2499 14.7939 16.2499 13C16.2499 12.7108 16.2012 12.4345 16.1297 12.168L25.5235 2.77419C26.1588 2.13884 26.1588 1.11187 25.5235 0.476516C24.8881 -0.158839 23.8612 -0.158839 23.2258 0.476516L18.9847 4.71763C17.3321 3.84341 15.3546 3.2503 13 3.2503C3.88078 3.2503 0.265273 12.0234 0.115778 12.3955C-0.0369676 12.7839 -0.0369676 13.2161 0.115778 13.6045C0.203525 13.8206 1.47261 16.8723 4.3114 19.3909L0.476516 23.2258C-0.158839 23.8612 -0.158839 24.8881 0.476516 25.5235C0.793381 25.8403 1.20937 25.9996 1.62536 25.9996C2.04134 25.9996 2.45733 25.8403 2.77419 25.5235L12.168 16.1297C12.4345 16.1995 12.7108 16.2499 13 16.2499ZM6.4998 13C6.4998 9.41048 9.41008 6.50019 12.9996 6.50019C14.2053 6.50019 15.3265 6.83818 16.2901 7.41179L13.8316 9.87034C13.5651 9.80047 13.2905 9.75009 12.9996 9.75009C11.2056 9.75009 9.7497 11.206 9.7497 13C9.7497 13.2892 9.80007 13.5638 9.86994 13.8303L7.41139 16.2905C6.83941 15.3253 6.4998 14.2041 6.4998 13ZM22.9845 7.89029L19.3251 11.5497C19.4307 12.0177 19.499 12.5003 19.499 13.0008C19.499 16.5903 16.5903 19.5005 12.9992 19.5005C12.5003 19.5005 12.0194 19.4323 11.5514 19.3251L8.81821 22.0566C10.0645 22.4807 11.4457 22.7504 12.9992 22.7504C22.12 22.7504 25.7339 13.9773 25.8834 13.6036C26.0378 13.2152 26.0378 12.7846 25.8834 12.3963C25.8119 12.2159 24.915 10.0612 22.9845 7.89029Z"/>
        </symbol>
        <symbol id="eye-on" viewBox="0 0 28 22">     
            <path fill-rule="evenodd" clip-rule="evenodd" d="M27.4481 10.6219C27.4165 10.516 24.2911 0 13.7503 0C3.20959 0 0.0842187 10.516 0.0525937 10.6219C-0.0175312 10.8694 -0.0175312 11.1306 0.0525937 11.3781C0.0842187 11.484 3.20959 22 13.7503 22C24.2911 22 27.4165 11.484 27.4481 11.3781C27.5182 11.1306 27.5182 10.8694 27.4481 10.6219ZM13.7504 19.25C6.23326 19.25 3.42138 12.6885 2.82188 11C3.42138 9.31152 6.23326 2.75002 13.7504 2.75002C21.2703 2.75002 24.0821 9.31702 24.6789 11C24.0808 12.6885 21.2675 19.25 13.7504 19.25ZM13.7501 13.7501C12.2334 13.7501 11.0001 12.5167 11.0001 11.0001C11.0001 9.48343 12.2334 8.25006 13.7501 8.25006C15.2667 8.25006 16.5001 9.48343 16.5001 11.0001C16.5001 12.5167 15.2667 13.7501 13.7501 13.7501ZM13.7498 5.49991C10.7166 5.49991 8.24981 7.96666 8.24981 10.9999C8.24981 14.0332 10.7166 16.4999 13.7498 16.4999C16.7831 16.4999 19.2498 14.0332 19.2498 10.9999C19.2498 7.96666 16.7831 5.49991 13.7498 5.49991Z"/>
        </symbol>
        <symbol id="grammar" viewBox="0 0 26 26">     
            <path fill-rule="evenodd" clip-rule="evenodd" d="M24.6999 0H1.3C0.581098 0 0 0.581098 0 1.3V24.6999C0 25.4188 0.581098 25.9999 1.3 25.9999H11.7C12.4189 25.9999 13 25.4188 13 24.6999C13 23.981 12.4189 23.3999 11.7 23.3999H2.59999V2.59999H23.3999V14.3C23.3999 15.0188 23.981 15.5999 24.6999 15.5999C25.4188 15.5999 25.9999 15.0188 25.9999 14.3V1.3C25.9999 0.581098 25.4188 0 24.6999 0ZM23.7812 18.5809L19.5003 22.8618L17.8194 21.1809C17.3111 20.6726 16.4895 20.6726 15.9812 21.1809C15.4729 21.6892 15.4729 22.5108 15.9812 23.0191L18.5812 25.6191C18.8347 25.8726 19.1675 26 19.5003 26C19.8331 26 20.1659 25.8726 20.4194 25.6191L25.6194 20.4191C26.1277 19.9108 26.1277 19.0892 25.6194 18.5809C25.1111 18.0726 24.2895 18.0726 23.7812 18.5809ZM7.8 14.3H18.2C18.9189 14.3 19.5 13.7189 19.5 13C19.5 12.2811 18.9189 11.7 18.2 11.7H7.8C7.0811 11.7 6.5 12.2811 6.5 13C6.5 13.7189 7.0811 14.3 7.8 14.3ZM7.8 19.5H11.7C12.4189 19.5 13 18.9189 13 18.2C13 17.4811 12.4189 16.9 11.7 16.9H7.8C7.0811 16.9 6.5 17.4811 6.5 18.2C6.5 18.9189 7.0811 19.5 7.8 19.5ZM7.8 9.09998H18.2C18.9189 9.09998 19.5 8.51888 19.5 7.79998C19.5 7.08109 18.9189 6.49999 18.2 6.49999H7.8C7.0811 6.49999 6.5 7.08109 6.5 7.79998C6.5 8.51888 7.0811 9.09998 7.8 9.09998Z"/>
        </symbol>
        <symbol id='home' viewBox='0 0 36 32'>           
            <path d='M29.9194 32H5.28236C4.81563 32 4.36802 31.8314 4.038 31.5314C3.70797 31.2313 3.52257 30.8244 3.52257 30.4V15.1186L2.93128 15.5986C2.58123 15.8804 2.12242 16.0242 1.65576 15.9984C1.18911 15.9726 0.752841 15.7793 0.442936 15.461C0.13303 15.1428 -0.0251279 14.7256 0.00325424 14.3013C0.0316363 13.8771 0.244234 13.4804 0.594278 13.1987L3.52257 10.8371V1.60041C3.52257 1.17607 3.70797 0.769105 4.038 0.469051C4.36802 0.168997 4.81563 0.000427878 5.28236 0.000427878H12.3215C12.7882 0.000427878 13.2358 0.168997 13.5659 0.469051C13.8959 0.769105 14.0813 1.17607 14.0813 1.60041V2.3044L16.4306 0.403623C16.7527 0.143607 17.1684 0 17.5991 0C18.0298 0 18.4456 0.143607 18.7676 0.403623L34.6057 13.2035C34.779 13.343 34.9205 13.5122 35.0219 13.7014C35.1233 13.8906 35.1827 14.0961 35.1967 14.3061C35.2108 14.5162 35.1792 14.7268 35.1038 14.9257C35.0283 15.1247 34.9105 15.3082 34.7571 15.4658C34.6036 15.6234 34.4175 15.752 34.2094 15.8442C34.0013 15.9364 33.7753 15.9904 33.5442 16.0032C33.3132 16.0159 33.0816 15.9872 32.8628 15.9186C32.6439 15.85 32.442 15.7429 32.2687 15.6034L31.6792 15.1186V30.4C31.6792 30.8244 31.4938 31.2313 31.1638 31.5314C30.8337 31.8314 30.3861 32 29.9194 32ZM12.3215 19.2002H22.8802C23.347 19.2002 23.7946 19.3687 24.1246 19.6688C24.4546 19.9688 24.64 20.3758 24.64 20.8001V28.8H28.1596V12.2739L17.6009 3.74118L7.04215 12.2739V28.8H10.5617V20.8001C10.5617 20.3758 10.7471 19.9688 11.0772 19.6688C11.4072 19.3687 11.8548 19.2002 12.3215 19.2002ZM14.0813 22.4001V28.8H21.1205V22.4001H14.0813ZM7.04215 3.20039V8.00032L10.5617 5.14916V3.20039H7.04215Z' />
        </symbol>
        <symbol id="lock-closed" viewBox="0 0 22 30">     
            <path fill-rule="evenodd" clip-rule="evenodd" d="M20.625 12H19.25V8.25C19.25 3.70012 15.5499 0 11 0C6.45012 0 2.75 3.70012 2.75 8.25V12H1.375C0.614625 12 0 12.6146 0 13.375V28.625C0 29.3854 0.614625 30 1.375 30H20.625C21.3854 30 22 29.3854 22 28.625V13.375C22 12.6146 21.3854 12 20.625 12ZM3 27H19V15H3V27ZM5.5 8.25C5.5 5.21675 7.96675 2.75 11 2.75C14.0332 2.75 16.5 5.21675 16.5 8.25V12H5.5V8.25ZM11 23C11.7604 23 12.375 22.3854 12.375 21.625V18.875C12.375 18.1147 11.7604 17.5 11 17.5C10.2397 17.5 9.62505 18.1147 9.62505 18.875V21.625C9.62505 22.3854 10.2397 23 11 23Z"/>
        </symbol>
        <symbol id="lock-open" viewBox="0 0 22 30">     
            <path fill-rule="evenodd" clip-rule="evenodd" d="M16.5 12H19.25H20.625C21.3854 12 22 12.6146 22 13.375V28.625C22 29.3854 21.3854 30 20.625 30H1.375C0.614625 30 0 29.3854 0 28.625V13.375C0 12.6146 0.614625 12 1.375 12H2.75V8.25C2.75 3.70012 6.45012 0 11 0C13.7846 0 16.251 1.38598 17.7456 3.5045L14.7845 4.26217C13.7979 3.32542 12.465 2.75 11 2.75C7.96675 2.75 5.5 5.21675 5.5 8.25V12H14H16.5ZM19 27V15H3V27H19ZM11 23C11.7604 23 12.375 22.3854 12.375 21.625V18.875C12.375 18.1147 11.7604 17.5 11 17.5C10.2397 17.5 9.62505 18.1147 9.62505 18.875V21.625C9.62505 22.3854 10.2397 23 11 23Z"/>
        </symbol>
        <symbol id="mobile-back-arrow" viewBox="0 0 20 14">     
            <path fill-rule="evenodd" clip-rule="evenodd" d="M18.5227 6.1409H3.74517L8.85625 1.63191C9.2108 1.31911 9.24659 0.776006 8.93722 0.419378C8.62528 0.0601716 8.0875 0.0257978 7.73466 0.33774L0.916477 6.35315C0.909659 6.35917 0.907102 6.36862 0.900284 6.37464C0.838068 6.43393 0.791193 6.50526 0.749432 6.58088C0.734091 6.60666 0.71108 6.62729 0.699148 6.65564C0.652273 6.76134 0.625 6.8765 0.625 7.00024C0.625 7.12399 0.652273 7.23914 0.699148 7.34484C0.71108 7.3732 0.734091 7.39382 0.749432 7.42046C0.792045 7.49522 0.838068 7.56655 0.900284 7.62584C0.907102 7.63186 0.909659 7.64131 0.916477 7.64733L7.73466 13.6627C7.89574 13.8054 8.09602 13.875 8.29545 13.875C8.53239 13.875 8.76847 13.7762 8.93722 13.5811C9.24659 13.2245 9.2108 12.6814 8.85625 12.3686L3.74517 7.85959H18.5227C18.994 7.85959 19.375 7.47546 19.375 7.00024C19.375 6.52502 18.994 6.1409 18.5227 6.1409Z"/>
        </symbol>
        <symbol id="mobile-hamburguer" viewBox="0 0 20 14">     
            <path fill-rule="evenodd" clip-rule="evenodd" d="M18.4375 7.9375H1.5625C1.045 7.9375 0.625 7.51844 0.625 7C0.625 6.48156 1.045 6.0625 1.5625 6.0625H18.4375C18.955 6.0625 19.375 6.48156 19.375 7C19.375 7.51844 18.955 7.9375 18.4375 7.9375ZM18.4375 2H1.5625C1.045 2 0.625 1.58094 0.625 1.0625C0.625 0.544063 1.045 0.125 1.5625 0.125H18.4375C18.955 0.125 19.375 0.544063 19.375 1.0625C19.375 1.58094 18.955 2 18.4375 2ZM18.4375 13.875H1.5625C1.045 13.875 0.625 13.4559 0.625 12.9375C0.625 12.4191 1.045 12 1.5625 12H18.4375C18.955 12 19.375 12.4191 19.375 12.9375C19.375 13.4559 18.955 13.875 18.4375 13.875Z"/>
        </symbol>
        <symbol id="notification" viewBox="0 0 22 26">     
            <path fill-rule="evenodd" clip-rule="evenodd" d="M4.14108 18.2C5.49955 15.8704 5.49955 13.3705 5.49955 10.4C5.49955 7.53215 7.96624 5.19995 10.9994 5.19995C14.0326 5.19995 16.4993 7.53215 16.4993 10.4C16.4993 13.3705 16.4993 15.8704 17.8591 18.2H4.14108ZM12.3763 22.1C12.3763 22.8176 11.7603 23.4 11.0013 23.4C10.2437 23.4 9.62637 22.8176 9.62637 22.1C9.62637 21.3824 10.2437 20.8 11.0013 20.8C11.7603 20.8 12.3763 21.3824 12.3763 22.1ZM21.5969 18.5809C19.2498 16.3618 19.2498 14.2441 19.2498 10.4C19.2498 6.5429 16.2703 3.3384 12.375 2.717V1.3C12.375 0.5811 11.7604 0 11 0C10.241 0 9.62503 0.5811 9.62503 1.3V2.717C5.72975 3.3384 2.7502 6.5429 2.7502 10.4C2.7502 14.2441 2.7502 16.3618 0.403126 18.5809C0.00988498 18.9527 -0.108362 19.5117 0.104758 19.9979C0.317878 20.4841 0.819741 20.8 1.37523 20.8H7.12809C6.97135 21.2069 6.8751 21.6411 6.8751 22.1C6.8751 24.2502 8.7258 26 11 26C13.2756 26 15.1249 24.2502 15.1249 22.1C15.1249 21.6411 15.03 21.2069 14.8733 20.8H20.6248C21.1816 20.8 21.6835 20.4841 21.8952 19.9979C22.1084 19.5117 21.9901 18.9527 21.5969 18.5809Z"/>
        </symbol>
         <symbol id="page-plus" viewBox="0 0 24 30">     
            <path fill-rule="evenodd" clip-rule="evenodd" d="M23.1397 6.4395L17.2469 0.4395C16.9714 0.1575 16.5972 0 16.2053 0H1.47321C0.658526 0 0 0.6705 0 1.5V28.5C0 29.3295 0.658526 30 1.47321 30H22.0982C22.9129 30 23.5714 29.3295 23.5714 28.5V7.5C23.5714 7.101 23.4167 6.72 23.1397 6.4395ZM20.625 27.0003H2.94642V3.00034H15.5954L20.625 8.12134V27.0003ZM13.2594 10.5C13.2594 9.67053 12.6009 9.00003 11.7862 9.00003C10.9715 9.00003 10.313 9.67053 10.313 10.5V13.5H7.36656C6.55188 13.5 5.89335 14.1705 5.89335 15C5.89335 15.8295 6.55188 16.5 7.36656 16.5H10.313V19.5C10.313 20.3295 10.9715 21 11.7862 21C12.6009 21 13.2594 20.3295 13.2594 19.5V16.5H16.2058C17.0205 16.5 17.679 15.8295 17.679 15C17.679 14.1705 17.0205 13.5 16.2058 13.5H13.2594V10.5Z"/>
        </symbol>
         <symbol id="page-search" viewBox="0 0 21 26">     
            <path fill-rule="evenodd" clip-rule="evenodd" d="M9.21483 10.851C7.80592 10.8586 6.48379 11.5322 5.65066 12.6674C4.81753 13.8026 4.57216 15.2648 4.9886 16.6095C5.4053 17.9541 6.43469 19.0218 7.76394 19.4886C9.09318 19.955 10.5651 19.7649 11.7321 18.976L14.847 22.0877V22.088C14.9996 22.2391 15.2055 22.3238 15.4205 22.3235C15.749 22.3238 16.0454 22.1266 16.172 21.8234C16.2982 21.5204 16.2295 21.171 15.9978 20.9384L12.8829 17.8266V17.8263C13.4967 16.9329 13.7625 15.8461 13.6303 14.7707C13.4984 13.6953 12.9776 12.7049 12.1658 11.9859C11.3542 11.2673 10.3076 10.8694 9.22288 10.8675L9.21483 10.851ZM6.39273 15.2955C6.39273 14.5476 6.69001 13.8307 7.21933 13.3019C7.74864 12.7732 8.4663 12.4762 9.21483 12.4762C9.96344 12.4762 10.681 12.7732 11.2103 13.3019C11.7396 13.8307 12.0369 14.5477 12.0369 15.2955C12.0369 16.0432 11.7397 16.7602 11.2103 17.289C10.681 17.8178 9.96336 18.1147 9.21483 18.1147C8.46623 18.1147 7.74863 17.8178 7.21933 17.289C6.69002 16.7602 6.39273 16.0432 6.39273 15.2955ZM20.7599 7.74724L13.9932 0.986996C13.3621 0.351669 12.502 -0.00395671 11.606 3.32148e-05H2.53759C1.86504 0.00116672 1.22025 0.268389 0.744611 0.743611C0.268914 1.21883 0.00116187 1.86297 0 2.5348V23.4652C0.00113463 24.1371 0.268906 24.7813 0.744611 25.2564C1.22031 25.7316 1.86509 25.9988 2.53759 26H18.4624C19.135 25.9989 19.7797 25.7316 20.2554 25.2564C20.7311 24.7812 20.9988 24.1371 21 23.4652V8.32455C21 8.10805 20.9138 7.90033 20.76 7.74788L20.7599 7.74724ZM13.4808 2.77456L18.2265 7.51147H13.4808V2.77456ZM19.3733 23.4649C19.371 23.9665 18.9646 24.3725 18.4625 24.3748H2.53766C2.03558 24.3725 1.62908 23.9665 1.62683 23.4649V2.53444C1.6291 2.03286 2.03558 1.62676 2.53766 1.62451H11.606C11.6894 1.6265 11.7723 1.63472 11.8542 1.64888V8.32353C11.8542 8.53918 11.9399 8.74576 12.0925 8.89821C12.2448 9.05039 12.4519 9.13596 12.6675 9.13596H19.3732L19.3733 23.4649Z"/>
        </symbol>
        <symbol id="price-lookup" viewBox="0 0 18 18">     
            <path fill-rule="evenodd" clip-rule="evenodd" d="M6.98561 10.0151C6.98561 11.6909 8.35494 13.062 10.0263 13.062C11.6987 13.062 13.067 11.6909 13.067 10.0151C13.067 8.33935 11.7088 6.97841 10.0375 6.96825H10.0263C8.35494 6.96825 6.98561 8.33935 6.98561 10.0151ZM16.8285 15.3878C17.2238 15.7839 17.2238 16.4339 16.8285 16.83C16.6258 17.0229 16.3724 17.1245 16.1079 17.1245C15.8444 17.1245 15.591 17.0229 15.3883 16.83L12.8249 14.2604C12.0242 14.7784 11.0613 15.0933 10.0265 15.0933C7.57366 15.0933 5.52727 13.3464 5.06103 11.0308H1.88857C1.3311 11.0308 0.875 10.5737 0.875 10.0151C0.875 9.45654 1.3311 8.99951 1.88857 8.99951H5.06103C5.21205 8.26825 5.50598 7.59794 5.94283 7.01904L1.92911 7.05966H1.91796C1.3605 7.05966 0.915543 6.61279 0.904393 6.06435C0.894258 5.4956 1.35036 5.03857 1.90782 5.02841L10.0164 4.937H10.0265C12.8249 4.937 15.0943 7.212 15.0943 10.0151C15.0943 11.0511 14.7801 12.0159 14.2642 12.8183L16.8285 15.3878ZM1.91833 2.92859C1.35985 2.92859 0.906789 2.47563 0.904761 1.91602C0.902734 1.35539 1.3558 0.898359 1.91529 0.897344L10.0238 0.875H10.0269C10.5853 0.875 11.0384 1.32695 11.0404 1.88758C11.0425 2.4482 10.5894 2.90422 10.0299 2.90625L1.92137 2.92859H1.91833Z"/>
        </symbol>
        <symbol id="refresh" viewBox="0 0 12 13">     
            <path fill-rule="evenodd" clip-rule="evenodd" d="M11.824 2.47594C12.0586 2.71054 12.0586 3.08973 11.824 3.32433L10.0241 5.12432C9.90705 5.24132 9.75345 5.30012 9.59985 5.30012C9.44625 5.30012 9.29266 5.24132 9.17566 5.12432C8.94106 4.88972 8.94106 4.51053 9.17566 4.27593L9.95145 3.50013H4.19989C2.8763 3.50013 1.7999 4.57652 1.7999 5.90012C1.7999 6.23191 1.5311 6.50011 1.19991 6.50011C0.868708 6.50011 0.59991 6.23191 0.59991 5.90012C0.59991 3.91473 2.2145 2.30014 4.19989 2.30014H9.95145L9.17566 1.52434C8.94106 1.28975 8.94106 0.910547 9.17566 0.675949C9.41026 0.44135 9.78945 0.44135 10.0241 0.675949L11.824 2.47594ZM10.2001 6.50011C10.5313 6.50011 10.8001 6.76831 10.8001 7.10011C10.8001 9.0855 9.18549 10.7001 7.2001 10.7001H2.04854L2.82433 11.4759C3.05893 11.7105 3.05893 12.0897 2.82433 12.3243C2.70733 12.4413 2.55373 12.5001 2.40013 12.5001C2.24654 12.5001 2.09294 12.4413 1.97594 12.3243L0.175949 10.5243C-0.0586496 10.2897 -0.0586496 9.91049 0.175949 9.67589L1.97594 7.8759C2.21054 7.64131 2.58973 7.64131 2.82433 7.8759C3.05893 8.1105 3.05893 8.4897 2.82433 8.7243L2.04854 9.50009H7.2001C8.5237 9.50009 9.60009 8.4237 9.60009 7.10011C9.60009 6.76831 9.86889 6.50011 10.2001 6.50011Z"/>
        </symbol>
        <symbol id="replace" viewBox="0 0 32 32">     
            <path fill-rule="evenodd" clip-rule="evenodd" d="M27.7 18.6003H19.9C19.1811 18.6003 18.6 19.1814 18.6 19.9003V27.7003C18.6 28.4192 19.1811 29.0003 19.9 29.0003H27.7C28.4189 29.0003 29 28.4192 29 27.7003V19.9003C29 19.1814 28.4189 18.6003 27.7 18.6003V18.6003ZM4.3 13.4002H12.1C12.8176 13.4002 13.4 12.8191 13.4 12.1002V4.30024C13.4 3.58134 12.8176 3.00024 12.1 3.00024H4.3C3.5824 3.00024 3 3.58134 3 4.30024V12.1002C3 12.8191 3.5824 13.4002 4.3 13.4002V13.4002ZM5.6 10.8003H10.8V5.60032H5.6V10.8003ZM21.2 26.4003H26.4V21.2003H21.2V26.4003ZM25.1003 6.90032H20.4385L22.1194 5.21942C22.6277 4.71112 22.6277 3.88952 22.1194 3.38122C21.6111 2.87293 20.7895 2.87293 20.2812 3.38122L16.3812 7.28122C15.8729 7.78952 15.8729 8.61112 16.3812 9.11942L20.2812 13.0194C20.5347 13.2729 20.8675 13.4003 21.2003 13.4003C21.5331 13.4003 21.8659 13.2729 22.1194 13.0194C22.6277 12.5111 22.6277 11.6895 22.1194 11.1812L20.4385 9.50032H25.1003C25.8179 9.50032 26.4003 10.0827 26.4003 10.8003V14.7003C26.4003 15.4192 26.9814 16.0003 27.7003 16.0003C28.4192 16.0003 29.0003 15.4192 29.0003 14.7003V10.8003C29.0003 8.65012 27.2505 6.90032 25.1003 6.90032M11.7191 18.9812C11.2108 18.4729 10.3892 18.4729 9.8809 18.9812C9.3726 19.4895 9.3726 20.3111 9.8809 20.8194L11.5618 22.5003H6.9C6.1837 22.5003 5.6 21.9179 5.6 21.2003V17.3003C5.6 16.5814 5.0176 16.0003 4.3 16.0003C3.5824 16.0003 3 16.5814 3 17.3003V21.2003C3 23.3505 4.7498 25.1003 6.9 25.1003H11.5618L9.8809 26.7812C9.3726 27.2895 9.3726 28.1111 9.8809 28.6194C10.1344 28.8729 10.4672 29.0003 10.8 29.0003C11.1328 29.0003 11.4656 28.8729 11.7191 28.6194L15.6191 24.7194C16.1274 24.2111 16.1274 23.3895 15.6191 22.8812L11.7191 18.9812Z"/>
        </symbol>
        <symbol id="search" viewBox="0 0 20 20">     
            <path fill-rule="evenodd" clip-rule="evenodd" d="M2 8C2 4.691 4.691 2 8 2C11.309 2 14 4.691 14 8C14 11.309 11.309 14 8 14C4.691 14 2 11.309 2 8ZM19.707 18.293L14.312 12.897C15.366 11.543 16 9.846 16 8C16 3.589 12.411 0 8 0C3.589 0 0 3.589 0 8C0 12.411 3.589 16 8 16C9.846 16 11.542 15.365 12.897 14.312L18.293 19.707C18.488 19.902 18.744 20 19 20C19.256 20 19.512 19.902 19.707 19.707C20.098 19.316 20.098 18.684 19.707 18.293Z"/>
        </symbol>
        <symbol id="text-block" viewBox="0 0 18 18">     
            <path fill-rule="evenodd" clip-rule="evenodd" d="M16.3125 0.875H1.6875C1.239 0.875 0.875 1.239 0.875 1.6875V16.3125C0.875 16.761 1.239 17.125 1.6875 17.125H16.3125C16.761 17.125 17.125 16.761 17.125 16.3125V1.6875C17.125 1.239 16.761 0.875 16.3125 0.875ZM2.49986 15.5H15.4999V2.50003H2.49986V15.5ZM4.93722 9.81248H13.0622C13.5107 9.81248 13.8747 9.44848 13.8747 8.99998C13.8747 8.55148 13.5107 8.18748 13.0622 8.18748H4.93722C4.48872 8.18748 4.12472 8.55148 4.12472 8.99998C4.12472 9.44848 4.48872 9.81248 4.93722 9.81248ZM4.93722 6.5625H13.0622C13.5107 6.5625 13.8747 6.1985 13.8747 5.75C13.8747 5.3015 13.5107 4.9375 13.0622 4.9375H4.93722C4.48872 4.9375 4.12472 5.3015 4.12472 5.75C4.12472 6.1985 4.48872 6.5625 4.93722 6.5625ZM8.99972 11.4375H4.93722C4.48872 11.4375 4.12472 11.8015 4.12472 12.25C4.12472 12.6985 4.48872 13.0625 4.93722 13.0625H8.18722C8.63572 13.0625 8.99972 12.6985 8.99972 12.25C8.99972 11.8015 8.63572 11.4375 8.18722 11.4375"/>
        </symbol>
         <symbol id="sidebar-left" viewBox="0 0 32 32">     
            <path fill-rule="evenodd" clip-rule="evenodd" d="M3 27.7V4.3C3 3.5824 3.5811 3 4.3 3H13.4C14.1189 3 14.7 3.5824 14.7 4.3V27.7C14.7 28.4189 14.1189 29 13.4 29H4.3C3.5811 29 3 28.4189 3 27.7ZM26.4 13.4V10.8C26.4 10.0824 26.9811 9.5 27.7 9.5C28.4189 9.5 29 10.0824 29 10.8V13.4C29 14.1176 28.4189 14.7 27.7 14.7C26.9811 14.7 26.4 14.1176 26.4 13.4ZM26.4 21.2V18.6C26.4 17.8811 26.9811 17.3 27.7 17.3C28.4189 17.3 29 17.8811 29 18.6V21.2C29 21.9189 28.4189 22.5 27.7 22.5C26.9811 22.5 26.4 21.9189 26.4 21.2ZM25.1 27.7C25.1 26.9811 25.6811 26.4 26.4 26.4C26.4 25.6811 26.9811 25.1 27.7 25.1C28.4189 25.1 29 25.6811 29 26.4V27.7C29 28.4189 28.4189 29 27.7 29H26.4C25.6811 29 25.1 28.4189 25.1 27.7ZM26.4 5.6C25.6811 5.6 25.1 5.0176 25.1 4.3C25.1 3.5824 25.6811 3 26.4 3H27.7C28.4189 3 29 3.5824 29 4.3V5.6C29 6.3176 28.4189 6.9 27.7 6.9C26.9811 6.9 26.4 6.3176 26.4 5.6ZM22.5 4.3C22.5 5.0176 21.9189 5.6 21.2 5.6H18.6C17.8811 5.6 17.3 5.0176 17.3 4.3C17.3 3.5824 17.8811 3 18.6 3H21.2C21.9189 3 22.5 3.5824 22.5 4.3ZM17.3 27.7C17.3 26.9811 17.8811 26.4 18.6 26.4H21.2C21.9189 26.4 22.5 26.9811 22.5 27.7C22.5 28.4189 21.9189 29 21.2 29H18.6C17.8811 29 17.3 28.4189 17.3 27.7ZM12.1 26.4V5.6H5.6V26.4H12.1Z"/>
        </symbol>
        <symbol id="sidebar-right" viewBox="0 0 32 32">     
            <path fill-rule="evenodd" clip-rule="evenodd" d="M29 27.7V4.3C29 3.5824 28.4189 3 27.7 3H18.6C17.8811 3 17.3 3.5824 17.3 4.3V27.7C17.3 28.4189 17.8811 29 18.6 29H27.7C28.4189 29 29 28.4189 29 27.7V27.7ZM5.6 13.4C5.6 14.1176 5.0189 14.7 4.3 14.7C3.5811 14.7 3 14.1176 3 13.4V10.8C3 10.0824 3.5811 9.5 4.3 9.5C5.0189 9.5 5.6 10.0824 5.6 10.8V13.4ZM5.6 21.2V18.6C5.6 17.8811 5.0189 17.3 4.3 17.3C3.5811 17.3 3 17.8811 3 18.6V21.2C3 21.9189 3.5811 22.5 4.3 22.5C5.0189 22.5 5.6 21.9189 5.6 21.2M6.9 27.7C6.9 26.9811 6.3189 26.4 5.6 26.4C5.6 25.6811 5.0189 25.1 4.3 25.1C3.5811 25.1 3 25.6811 3 26.4V27.7C3 28.4189 3.5811 29 4.3 29H5.6C6.3189 29 6.9 28.4189 6.9 27.7M5.6 5.6C6.3189 5.6 6.9 5.0176 6.9 4.3C6.9 3.5824 6.3189 3 5.6 3H4.3C3.5811 3 3 3.5824 3 4.3V5.6C3 6.3176 3.5811 6.9 4.3 6.9C5.0189 6.9 5.6 6.3176 5.6 5.6M9.5 4.3C9.5 5.0176 10.0811 5.6 10.8 5.6H13.4C14.1189 5.6 14.7 5.0176 14.7 4.3C14.7 3.5824 14.1189 3 13.4 3H10.8C10.0811 3 9.5 3.5824 9.5 4.3M14.7 27.7C14.7 26.9811 14.1189 26.4 13.4 26.4H10.8C10.0811 26.4 9.5 26.9811 9.5 27.7C9.5 28.4189 10.0811 29 10.8 29H13.4C14.1189 29 14.7 28.4189 14.7 27.7M19.9 26.4H26.4V5.6H19.9V26.4Z"/>
        </symbol>
        <symbol id="transaction" viewBox="0 0 16 14">     
            <path fill-rule="evenodd" clip-rule="evenodd" d="M8.96976 5.59476L9.93951 4.62501H2V12.875C2 13.2898 1.664 13.625 1.25 13.625C0.836001 13.625 0.5 13.2898 0.5 12.875V0.875001C0.5 0.460251 0.836001 0.125 1.25 0.125C1.664 0.125 2 0.460251 2 0.875001V3.125H9.93951L8.96976 2.15525C8.67651 1.862 8.67651 1.388 8.96976 1.09475C9.26301 0.801501 9.73701 0.801501 10.0303 1.09475L12.2795 3.344C12.3493 3.41376 12.404 3.49626 12.4423 3.58851C12.518 3.77151 12.518 3.97851 12.4423 4.16151C12.404 4.25376 12.3493 4.33626 12.2795 4.40601L10.0303 6.65526C9.88401 6.80151 9.69201 6.87501 9.50001 6.87501C9.30801 6.87501 9.11601 6.80151 8.96976 6.65526C8.67651 6.36201 8.67651 5.88801 8.96976 5.59476ZM14.7498 0.125C15.1638 0.125 15.4998 0.460251 15.4998 0.875001V12.875C15.4998 13.2898 15.1638 13.625 14.7498 13.625C14.3358 13.625 13.9998 13.2898 13.9998 12.875V10.625H6.0603L7.03005 11.5948C7.32331 11.888 7.32331 12.362 7.03005 12.6553C6.8838 12.8015 6.6918 12.875 6.4998 12.875C6.3078 12.875 6.1158 12.8015 5.96955 12.6553L3.7203 10.406C3.65055 10.3363 3.5958 10.2538 3.55755 10.1615C3.4818 9.97852 3.4818 9.77151 3.55755 9.58852C3.5958 9.49626 3.65055 9.41376 3.7203 9.34401L5.96955 7.09476C6.2628 6.80151 6.7368 6.80151 7.03005 7.09476C7.32331 7.38801 7.32331 7.86201 7.03005 8.15526L6.0603 9.12501H13.9998V0.875001C13.9998 0.460251 14.3358 0.125 14.7498 0.125Z"/>
        </symbol>    
    </defs>
</svg>